<?xml version="1.0" encoding="utf-8" standalone="no"?>
<!DOCTYPE svg PUBLIC "-//W3C//DTD SVG 1.1//EN"
  "http://www.w3.org/Graphics/SVG/1.1/DTD/svg11.dtd">
<!-- Created with matplotlib (https://matplotlib.org/) -->
<svg height="136.8pt" version="1.1" viewBox="0 0 280.8 136.8" width="280.8pt" xmlns="http://www.w3.org/2000/svg" xmlns:xlink="http://www.w3.org/1999/xlink">
 <defs>
  <style type="text/css">
*{stroke-linecap:butt;stroke-linejoin:round;}
  </style>
 </defs>
 <g id="figure_1">
  <g id="patch_1">
   <path d="M 0 136.8 
L 280.8 136.8 
L 280.8 0 
L 0 0 
z
" style="fill:#ffffff;"/>
  </g>
  <g id="axes_1">
   <g id="line2d_1">
    <path clip-path="url(#p0a229f34af)" d="M 19.309091 21.159087 
L 20.975132 21.14874 
L 22.641173 21.160283 
L 24.004298 21.147395 
L 25.367423 21.161786 
L 26.427631 21.145797 
L 27.487839 21.163466 
L 28.24513 21.14415 
L 29.002422 21.164985 
L 29.759713 21.142994 
L 30.517005 21.187056 
L 31.274296 21.159865 
L 32.031588 21.229414 
L 32.485963 21.194515 
L 33.546171 21.374004 
L 34.000546 21.319496 
L 34.606379 21.498022 
L 34.757837 21.720606 
L 34.909296 21.594225 
L 35.060754 21.710038 
L 35.212212 21.594158 
L 35.36367 21.714923 
L 35.515129 21.585135 
L 35.666587 21.72955 
L 35.818045 21.559755 
L 35.969504 21.785909 
L 36.27242 20.649829 
L 37.18117 20.782473 
L 37.332628 20.525396 
L 37.484087 20.925248 
L 37.787003 18.001141 
L 37.938462 18.219771 
L 38.241378 18.143004 
L 38.392836 18.209193 
L 38.544295 18.084249 
L 38.695753 18.283312 
L 38.847211 17.966265 
L 38.99867 18.545015 
L 39.301586 12.99488 
L 39.453045 13.631158 
L 39.604503 13.25384 
L 39.755961 13.517808 
L 39.907419 13.320585 
L 40.058878 13.470867 
L 40.210336 13.359137 
L 40.513253 13.414157 
L 40.816169 12.645244 
L 40.967627 12.790949 
L 41.119086 12.695863 
L 41.422002 12.723028 
L 41.876377 12.671101 
L 42.027836 12.890413 
L 42.330752 10.184989 
L 42.48221 10.550936 
L 42.633669 10.314393 
L 42.785127 10.492072 
L 42.936585 10.35134 
L 43.088044 10.463355 
L 43.239502 10.378709 
L 43.542419 10.439601 
L 43.845335 9.327068 
L 43.996793 9.542533 
L 44.148252 9.385486 
L 44.29971 9.513021 
L 44.451168 9.406638 
L 44.602627 9.493806 
L 44.905543 9.462455 
L 45.057002 9.493316 
L 45.359918 8.174894 
L 45.511376 8.427099 
L 45.662835 8.238034 
L 45.814293 8.398719 
L 45.965751 8.255297 
L 46.11721 8.386045 
L 46.268668 8.266406 
L 46.420126 8.373708 
L 46.723043 8.19263 
L 46.874501 7.931073 
L 47.025959 8.08946 
L 47.177418 7.949088 
L 47.328876 8.081209 
L 47.480334 7.953987 
L 47.631793 8.077932 
L 47.783251 7.956342 
L 47.934709 8.076083 
L 48.086167 7.958244 
L 48.237626 8.06454 
L 48.389084 7.935868 
L 48.540542 8.058581 
L 48.692001 7.936131 
L 48.843459 8.059349 
L 48.994917 7.934641 
L 49.146376 8.061635 
L 49.297834 7.931219 
L 49.449292 8.067149 
L 49.60075 7.92 
L 49.752209 8.169653 
L 49.903667 8.11858 
L 50.055125 8.230266 
L 50.206584 8.104717 
L 50.358042 8.240083 
L 50.5095 8.094794 
L 50.660959 8.25214 
L 50.812417 8.077936 
L 50.963875 8.279989 
L 51.115333 8.016309 
L 51.41825 9.289098 
L 52.327 9.181639 
L 52.478458 9.361334 
L 52.629916 9.13122 
L 52.932833 9.968641 
L 53.084291 10.052327 
L 53.23575 9.910177 
L 53.387208 10.09353 
L 53.538666 9.868295 
L 53.690125 10.145385 
L 53.841583 9.793623 
L 53.993041 10.273201 
L 54.144499 9.500498 
L 54.447416 15.788764 
L 54.598874 15.186 
L 54.750333 15.490926 
L 54.901791 15.321654 
L 55.204707 15.392563 
L 55.356166 15.330831 
L 55.507624 15.49175 
L 55.659082 15.133293 
L 55.961999 19.039842 
L 56.113457 18.571196 
L 56.264916 18.847506 
L 56.416374 18.661696 
L 56.567832 18.787901 
L 56.870749 18.736534 
L 57.022207 18.7805 
L 57.173665 18.599407 
L 57.476582 21.300579 
L 57.62804 20.909482 
L 57.779499 21.168662 
L 57.930957 20.970238 
L 58.082415 21.130341 
L 58.233873 20.999887 
L 58.385332 21.102408 
L 58.688248 21.041079 
L 58.991165 22.177671 
L 59.142623 21.935015 
L 59.294082 22.121473 
L 59.44554 21.960501 
L 59.596998 22.106322 
L 59.748456 21.970772 
L 59.899915 22.098776 
L 60.051373 21.976763 
L 60.202831 22.093052 
L 60.35429 22.001481 
L 60.505748 22.136441 
L 60.657206 22.014465 
L 60.808665 22.135225 
L 60.960123 22.013072 
L 61.111581 22.138942 
L 61.263039 22.006226 
L 61.414498 22.151062 
L 61.565956 21.982984 
L 61.717414 22.207675 
L 62.020331 20.953409 
L 62.323247 21.012399 
L 62.777622 20.963342 
L 62.929081 21.047923 
L 63.080539 20.937578 
L 63.231997 21.102332 
L 63.534914 19.984846 
L 63.83783 20.03887 
L 64.74658 20.098363 
L 65.049497 19.566493 
L 65.958247 19.645076 
L 66.109705 19.48696 
L 66.261163 19.754624 
L 66.56408 17.404418 
L 66.715538 17.652227 
L 66.866996 17.514631 
L 67.018455 17.603021 
L 67.321371 17.579491 
L 67.775746 17.622574 
L 68.078663 16.574563 
L 68.230121 16.721085 
L 68.381579 16.627289 
L 68.684496 16.644824 
L 69.290329 16.716702 
L 69.593246 15.574938 
L 69.744704 15.763821 
L 69.896162 15.626761 
L 70.047621 15.74255 
L 70.199079 15.637684 
L 70.350537 15.736768 
L 70.501996 15.64003 
L 70.653454 15.737781 
L 70.804912 15.632928 
L 70.95637 15.826774 
L 71.410745 15.79911 
L 71.562204 15.888496 
L 71.713662 15.78946 
L 71.86512 15.90108 
L 72.016579 15.770868 
L 72.168037 15.933032 
L 72.319495 15.698362 
L 72.622412 17.217082 
L 72.925328 17.139658 
L 73.379703 17.200271 
L 73.531162 17.067091 
L 73.68262 17.267177 
L 73.834078 16.917519 
L 74.136995 20.094843 
L 74.288453 19.750645 
L 74.439911 19.944641 
L 74.59137 19.818594 
L 74.742828 19.901647 
L 75.045744 19.86641 
L 75.197203 19.900654 
L 75.348661 19.771466 
L 75.651578 21.670601 
L 75.803036 21.392986 
L 75.954494 21.579772 
L 76.105953 21.433663 
L 76.257411 21.555097 
L 76.408869 21.451855 
L 76.560327 21.538823 
L 76.863244 21.505304 
L 77.166161 22.130138 
L 77.317619 21.963938 
L 77.469077 22.100687 
L 77.620536 21.976217 
L 77.771994 22.094435 
L 77.923452 21.979363 
L 78.07491 22.093351 
L 78.226369 21.978732 
L 78.377827 22.095929 
L 78.529285 21.964695 
L 78.680744 22.077972 
L 78.832202 21.95209 
L 78.98366 22.087672 
L 79.135119 21.93965 
L 79.286577 22.104912 
L 79.438035 21.91433 
L 79.589493 22.145215 
L 79.740952 21.840964 
L 79.89241 22.32 
L 80.195327 18.466128 
L 80.346785 18.843725 
L 80.498243 18.642453 
L 80.649702 18.767835 
L 80.80116 18.686605 
L 81.104076 18.713178 
L 81.406993 18.761691 
L 81.70991 17.916592 
L 81.861368 18.03227 
L 82.012826 17.959949 
L 82.467201 18.002281 
L 83.830326 17.917848 
L 84.436159 17.950734 
L 84.739076 17.460516 
L 85.19345 17.49043 
L 85.950742 17.538431 
L 86.253659 16.937688 
L 86.708033 16.967801 
L 87.162408 17.007452 
L 87.313867 16.916801 
L 87.465325 17.084671 
L 87.768242 15.451546 
L 87.9197 15.639563 
L 88.071158 15.5288 
L 88.222616 15.604855 
L 88.525533 15.58854 
L 88.979908 15.596199 
L 89.282824 15.063998 
L 89.585741 15.094547 
L 90.191574 15.128431 
L 90.343033 15.077364 
L 90.494491 15.197506 
L 90.797407 13.743597 
L 90.948866 13.939576 
L 91.100324 13.812695 
L 91.251782 13.908227 
L 91.403241 13.832503 
L 91.706157 13.848362 
L 92.009074 13.889887 
L 92.31199 13.063094 
L 92.463449 13.222058 
L 92.614907 13.102102 
L 92.766365 13.205196 
L 92.917824 13.111535 
L 93.069282 13.199328 
L 93.22074 13.115218 
L 93.372199 13.197447 
L 93.523657 13.114473 
L 93.675115 13.229118 
L 94.12949 13.179924 
L 94.280948 13.249055 
L 94.432407 13.17825 
L 94.583865 13.25133 
L 94.735323 13.174703 
L 94.886782 13.257672 
L 95.03824 13.159968 
L 95.341156 13.472779 
L 95.795531 13.511446 
L 95.94699 13.450989 
L 96.098448 13.517284 
L 96.249906 13.443983 
L 96.401364 13.527736 
L 96.552823 13.422365 
L 96.855739 13.845495 
L 97.613031 13.886545 
L 97.764489 13.800426 
L 97.915947 13.90523 
L 98.067406 13.761636 
L 98.370322 14.518415 
L 99.279072 14.426006 
L 99.43053 14.604316 
L 99.581989 14.312876 
L 99.884905 16.729974 
L 100.036364 16.491974 
L 100.187822 16.616586 
L 100.490739 16.58576 
L 101.096572 16.518539 
L 101.399488 17.341332 
L 101.550947 17.248972 
L 102.005322 17.281071 
L 102.611155 17.208498 
L 102.914071 18.32587 
L 103.06553 18.19025 
L 103.216988 18.272321 
L 103.519904 18.257695 
L 104.125738 18.236807 
L 104.580113 18.364103 
L 105.488862 18.393555 
L 105.640321 18.331052 
L 105.943237 18.955778 
L 106.246154 18.923915 
L 106.851987 18.898979 
L 107.154904 18.856589 
L 107.45782 19.728192 
L 107.609279 19.618128 
L 107.912195 19.637617 
L 108.36657 19.663017 
L 108.669487 19.635759 
L 108.972403 20.17163 
L 109.123862 20.083823 
L 109.426778 20.095364 
L 109.881153 20.135558 
L 110.335528 20.137236 
L 261.490909 20.137236 
L 261.490909 20.137236 
" style="fill:none;stroke:#a1c9f4;stroke-linecap:square;stroke-width:2.5;"/>
   </g>
  </g>
  <g id="axes_2">
   <g id="line2d_2">
    <path clip-path="url(#pe44d342c00)" d="M 19.309091 46.057297 
L 22.539839 46.088302 
L 32.853379 46.109161 
L 34.717272 46.097839 
L 65.160856 46.452582 
L 65.533635 46.539775 
L 66.403452 46.517178 
L 66.651971 46.894498 
L 67.024749 46.860251 
L 67.646047 46.839842 
L 67.894566 47.303355 
L 68.143085 47.280742 
L 68.640123 47.266973 
L 68.888642 47.248388 
L 69.137161 47.614192 
L 69.38568 47.595482 
L 69.882718 47.580442 
L 70.131237 47.553497 
L 70.379757 48.11434 
L 70.504016 48.024387 
L 70.752535 48.036965 
L 71.125314 48.07111 
L 71.373833 48.047103 
L 71.622352 48.543393 
L 71.746611 48.444111 
L 71.870871 48.519938 
L 72.11939 48.513387 
L 72.492168 48.467208 
L 72.740688 48.628307 
L 72.864947 48.816854 
L 72.989207 48.719556 
L 73.113466 48.802394 
L 73.237726 48.725401 
L 73.361985 48.79935 
L 73.486245 48.727272 
L 73.610504 48.79785 
L 73.734764 48.729264 
L 74.107542 48.924523 
L 74.231802 48.826357 
L 74.356061 48.921502 
L 74.480321 48.825294 
L 74.60458 48.924597 
L 74.72884 48.820305 
L 74.853099 48.932251 
L 74.977359 48.807482 
L 75.101619 48.96 
L 75.350138 48.412413 
L 75.722916 48.354836 
L 75.847176 48.455596 
L 75.971435 48.342028 
L 76.095695 48.470249 
L 76.219954 48.322189 
L 76.344214 48.506066 
L 76.592733 47.934262 
L 76.716992 47.843914 
L 76.841252 47.977908 
L 76.965511 47.811149 
L 77.089771 48.012491 
L 77.214031 47.76763 
L 77.33829 48.075325 
L 77.46255 47.660622 
L 77.586809 48.318594 
L 77.835328 43.162841 
L 77.959588 43.620246 
L 78.083847 43.414392 
L 78.332366 43.498829 
L 78.456626 43.422012 
L 78.580885 43.589495 
L 78.705145 43.284763 
L 78.829404 43.885443 
L 79.077923 37.701956 
L 79.202183 38.447681 
L 79.326442 37.992274 
L 79.450702 38.319873 
L 79.574962 38.068065 
L 79.699221 38.266014 
L 79.823481 38.113115 
L 80.072 38.183484 
L 80.320519 37.107258 
L 80.444778 37.338618 
L 80.569038 37.170836 
L 80.693297 37.303247 
L 80.817557 37.198493 
L 81.066076 37.230442 
L 81.314595 37.330425 
L 81.563114 35.293208 
L 81.687373 35.628523 
L 81.811633 35.391422 
L 81.935893 35.583723 
L 82.060152 35.419454 
L 82.184412 35.56215 
L 82.308671 35.439731 
L 82.432931 35.537548 
L 82.55719 35.484335 
L 82.805709 34.656516 
L 82.929969 34.881152 
L 83.054228 34.697545 
L 83.178488 34.8624 
L 83.302747 34.708909 
L 83.427007 34.854364 
L 83.551266 34.71537 
L 83.675526 34.848153 
L 83.799785 34.724011 
L 83.924045 34.781856 
L 84.048304 34.595667 
L 84.172564 34.744484 
L 84.296824 34.601878 
L 84.421083 34.742177 
L 84.545343 34.602551 
L 84.669602 34.742617 
L 84.793862 34.601029 
L 84.918121 34.745642 
L 85.042381 34.594604 
L 85.16664 34.801328 
L 85.2909 34.699951 
L 85.415159 34.835288 
L 85.539419 34.690607 
L 85.663678 34.843006 
L 85.787938 34.682124 
L 85.912197 34.853642 
L 86.036457 34.667293 
L 86.160716 34.877518 
L 86.284976 34.616556 
L 86.533495 35.603259 
L 86.657755 35.666656 
L 86.782014 35.546445 
L 86.906274 35.700496 
L 87.030533 35.516401 
L 87.154793 35.734281 
L 87.279052 35.470998 
L 87.403312 35.808 
L 87.527571 35.308879 
L 87.77609 38.647305 
L 87.90035 38.439191 
L 88.148869 38.527253 
L 88.273128 38.4088 
L 88.397388 38.596002 
L 88.521647 38.321144 
L 88.645907 38.736692 
L 88.770167 38.007447 
L 89.018686 44.679723 
L 89.142945 43.947131 
L 89.267205 44.368173 
L 89.391464 44.084217 
L 89.515724 44.2862 
L 89.639983 44.143958 
L 89.888502 44.203622 
L 90.012762 44.132064 
L 90.261281 45.912501 
L 90.38554 45.627444 
L 90.5098 45.819592 
L 90.634059 45.672909 
L 90.758319 45.789037 
L 90.882578 45.698039 
L 91.131098 45.729458 
L 91.255357 45.706334 
L 91.503876 46.769412 
L 91.628136 46.575911 
L 91.752395 46.714558 
L 91.876655 46.602667 
L 92.000914 46.696565 
L 92.125174 46.61749 
L 92.373693 46.635869 
L 92.497952 46.648546 
L 92.746471 47.249071 
L 92.870731 47.116338 
L 92.99499 47.216889 
L 93.11925 47.13293 
L 93.243509 47.204769 
L 93.492029 47.192118 
L 93.740548 47.154596 
L 93.989067 47.908749 
L 94.113326 47.755762 
L 94.237586 47.872002 
L 94.361845 47.772778 
L 94.486105 47.861087 
L 94.610364 47.781516 
L 94.734624 47.85239 
L 94.983143 47.830437 
L 95.231662 48.261412 
L 95.355921 48.131914 
L 95.480181 48.240884 
L 95.604441 48.140931 
L 95.7287 48.235636 
L 95.85296 48.144546 
L 95.977219 48.232663 
L 96.101479 48.147794 
L 96.474257 48.346204 
L 96.598517 48.239356 
L 96.722776 48.342049 
L 96.847036 48.239937 
L 96.971295 48.34303 
L 97.095555 48.237761 
L 97.219814 48.346595 
L 97.344074 48.23186 
L 97.468333 48.358659 
L 97.592593 48.121925 
L 97.965372 48.160575 
L 98.089631 48.046712 
L 98.213891 48.170623 
L 98.33815 48.034973 
L 98.46241 48.186277 
L 98.586669 48.010503 
L 98.710929 48.237247 
L 98.959448 47.262071 
L 99.083707 47.228277 
L 99.207967 47.319352 
L 99.332226 47.193386 
L 99.456486 47.351081 
L 99.580745 47.156861 
L 99.705005 47.401309 
L 99.829264 47.073424 
L 99.953524 47.588864 
L 100.202043 43.630371 
L 100.326303 43.971313 
L 100.450562 43.82263 
L 100.699081 43.884927 
L 100.823341 43.824846 
L 100.9476 43.947194 
L 101.07186 43.733915 
L 101.196119 44.137799 
L 101.444638 40.246379 
L 101.568898 40.677664 
L 101.693157 40.434691 
L 101.817417 40.5906 
L 101.941676 40.490821 
L 102.190195 40.536593 
L 102.314455 40.485339 
L 102.438714 40.65156 
L 102.687234 38.446834 
L 102.811493 38.739394 
L 102.935753 38.558193 
L 103.060012 38.685558 
L 103.184272 38.594687 
L 103.432791 38.627296 
L 103.55705 38.610642 
L 103.68131 38.712841 
L 103.929829 37.067792 
L 104.054088 37.30672 
L 104.178348 37.151991 
L 104.302607 37.264989 
L 104.426867 37.181469 
L 104.675386 37.211346 
L 104.799646 37.195301 
L 104.923905 37.300709 
L 105.172424 35.489937 
L 105.296684 35.772673 
L 105.420943 35.577049 
L 105.545203 35.733214 
L 105.669462 35.601347 
L 105.793722 35.715091 
L 105.917981 35.617483 
L 106.1665 35.647332 
L 106.415019 35.14425 
L 106.539279 35.291847 
L 106.663538 35.171486 
L 106.787798 35.27807 
L 106.912057 35.181039 
L 107.036317 35.270015 
L 107.160577 35.189165 
L 107.409096 35.207985 
L 107.781874 34.985757 
L 107.906134 34.882509 
L 108.030393 34.976844 
L 108.154653 34.888666 
L 108.278912 34.971559 
L 108.403172 34.89423 
L 108.651691 34.909024 
L 109.148729 34.632204 
L 109.272988 34.728765 
L 109.397248 34.635911 
L 109.521508 34.726157 
L 109.645767 34.638079 
L 109.770027 34.723831 
L 110.142805 34.566321 
L 110.267065 34.665069 
L 110.391324 34.569223 
L 110.515584 34.664428 
L 110.639843 34.568889 
L 110.764103 34.665494 
L 110.888362 34.566986 
L 111.012622 34.668794 
L 111.136881 34.56 
L 111.261141 34.734486 
L 111.3854 34.687997 
L 111.50966 34.77314 
L 111.633919 34.679513 
L 111.758179 34.77886 
L 111.882439 34.67399 
L 112.006698 34.785289 
L 112.130958 34.665374 
L 112.255217 34.798922 
L 112.379477 34.636457 
L 112.627996 35.205662 
L 112.752255 35.251906 
L 112.876515 35.174484 
L 113.000774 35.26921 
L 113.125034 35.160342 
L 113.249293 35.283892 
L 113.373553 35.141951 
L 113.497812 35.312022 
L 113.622072 35.083019 
L 113.870591 36.243336 
L 114.616148 36.112054 
L 114.740408 36.363383 
L 114.864667 35.97091 
L 115.113186 38.925905 
L 115.237446 38.680163 
L 115.485965 38.747246 
L 115.858743 38.698044 
L 115.983003 38.840124 
L 116.107262 38.58885 
L 116.355782 40.706889 
L 116.480041 40.519326 
L 116.72856 40.575749 
L 117.101339 40.504665 
L 117.225598 40.693943 
L 117.349858 40.337266 
L 117.598377 43.832955 
L 117.722636 43.430493 
L 117.846896 43.66747 
L 117.971155 43.504485 
L 118.095415 43.622316 
L 118.219674 43.538169 
L 118.468193 43.573312 
L 118.592453 43.531466 
L 118.840972 44.592901 
L 118.965232 44.423223 
L 119.089491 44.536718 
L 119.213751 44.451345 
L 119.46227 44.468184 
L 119.835048 44.453647 
L 120.083567 45.335792 
L 120.207827 45.189605 
L 120.332086 45.291969 
L 120.456346 45.209992 
L 120.580605 45.279177 
L 120.829124 45.271003 
L 121.077644 45.259196 
L 121.574682 45.407231 
L 121.94746 45.372412 
L 122.444498 45.52147 
L 122.568758 45.660695 
L 122.817277 45.645883 
L 123.190056 45.615191 
L 123.687094 45.769057 
L 123.811353 45.910263 
L 124.184132 45.859892 
L 124.68117 45.869182 
L 124.929689 45.961586 
L 125.053948 46.059371 
L 125.426727 46.019035 
L 125.923765 46.024169 
L 127.539139 46.137718 
L 128.160437 46.117788 
L 129.154513 46.137042 
L 130.272849 46.17025 
L 131.266925 46.168985 
L 132.385261 46.169385 
L 133.130818 46.176197 
L 134.249153 46.16694 
L 135.864527 46.177672 
L 137.231382 46.18516 
L 137.355642 46.996889 
L 261.490909 46.996889 
L 261.490909 46.996889 
" style="fill:none;stroke:#ffb482;stroke-linecap:square;stroke-width:2.5;"/>
   </g>
  </g>
  <g id="axes_3">
   <g id="line2d_3">
    <path clip-path="url(#p0283c0cb17)" d="M 19.309091 73.446931 
L 55.533385 73.446931 
L 55.654536 72.768622 
L 61.590959 72.819555 
L 91.273073 72.908672 
L 100.722889 72.984353 
L 100.965192 73.178011 
L 101.813252 73.147487 
L 101.934404 73.299341 
L 102.055555 74.00634 
L 102.661312 73.992496 
L 103.145918 74.019661 
L 103.388221 74.170257 
L 107.870826 74.512224 
L 111.626522 74.611532 
L 111.989977 74.657409 
L 112.838037 74.646535 
L 113.201492 74.68462 
L 114.049552 74.666007 
L 114.655309 74.688099 
L 115.50337 74.597258 
L 115.866824 74.630698 
L 116.230279 74.585151 
L 116.35143 74.647587 
L 116.472582 74.530979 
L 116.714885 74.19483 
L 117.078339 74.249666 
L 117.199491 74.172833 
L 117.320642 74.269463 
L 117.441794 74.138349 
L 117.562945 74.349198 
L 117.684097 73.740874 
L 117.805248 71.143808 
L 118.168703 71.157032 
L 118.77446 71.240175 
L 118.895611 70.838078 
L 119.016763 69.085904 
L 119.501369 69.114371 
L 119.62252 69.057756 
L 119.743672 69.15114 
L 119.864823 68.99548 
L 119.985975 69.294206 
L 120.107126 68.280162 
L 120.228278 63.511564 
L 120.349429 63.661507 
L 120.470581 63.50644 
L 120.591732 63.628742 
L 120.712884 63.532553 
L 120.955187 63.555376 
L 121.19749 63.614991 
L 121.318641 63.298642 
L 121.439793 61.40392 
L 121.560944 61.52857 
L 121.682096 61.403148 
L 121.803247 61.515557 
L 121.924399 61.412801 
L 122.04555 61.508428 
L 122.166702 61.418435 
L 122.287853 61.503322 
L 122.409005 61.424976 
L 122.530156 61.48036 
L 122.651307 61.251181 
L 122.772459 61.341184 
L 122.89361 61.250062 
L 123.014762 61.342168 
L 123.135913 61.247515 
L 123.257065 61.346912 
L 123.378216 61.239107 
L 123.499368 61.363029 
L 123.620519 61.2 
L 123.741671 61.561896 
L 123.862822 62.809911 
L 124.226277 62.858784 
L 124.347428 62.80133 
L 124.46858 62.867464 
L 124.589731 62.791643 
L 124.710883 62.880657 
L 124.832034 62.766957 
L 124.953186 62.985519 
L 125.195489 63.63576 
L 125.31664 63.557595 
L 125.437792 63.65188 
L 125.558943 63.5384 
L 125.680095 63.677263 
L 125.801246 63.500358 
L 125.922398 63.744424 
L 126.043549 63.343211 
L 126.164701 64.534243 
L 126.285852 69.729133 
L 126.407004 69.636318 
L 126.528155 69.732742 
L 126.770458 69.699087 
L 127.133912 69.764106 
L 127.255064 69.540516 
L 127.376215 70.352876 
L 127.497367 74.274551 
L 127.618518 74.137078 
L 127.73967 74.277998 
L 127.860821 74.163959 
L 127.981973 74.25744 
L 128.103124 74.18012 
L 128.345427 74.195758 
L 128.58773 74.296691 
L 128.708882 74.992408 
L 128.830033 74.921431 
L 128.951185 74.990414 
L 129.193488 74.985042 
L 129.556942 74.937063 
L 129.799245 74.963576 
L 129.920397 75.173896 
L 130.283851 75.127406 
L 130.647305 75.170347 
L 131.01076 75.140198 
L 131.131911 75.248499 
L 131.495366 75.204484 
L 131.85882 75.249352 
L 132.222275 75.210474 
L 132.343426 75.318122 
L 132.706881 75.258076 
L 132.828032 75.326051 
L 132.949184 75.25129 
L 133.070335 75.336316 
L 133.191487 75.233586 
L 133.312638 75.376188 
L 133.43379 75.040372 
L 133.554941 73.836362 
L 133.918396 73.788223 
L 134.039547 73.856858 
L 134.160699 73.768362 
L 134.28185 73.884792 
L 134.403002 73.720859 
L 134.524153 73.993683 
L 134.645304 73.178827 
L 134.766456 69.621128 
L 134.887607 69.683631 
L 135.12991 69.655889 
L 135.614516 69.596019 
L 135.735668 69.746683 
L 135.856819 69.227811 
L 135.977971 66.813091 
L 136.220274 66.815956 
L 136.70488 66.86618 
L 136.826031 66.784434 
L 136.947183 66.968182 
L 137.068334 66.281851 
L 137.189486 62.917353 
L 137.310637 63.044808 
L 137.431789 62.914268 
L 137.55294 63.021625 
L 137.674092 62.932449 
L 137.795243 63.006593 
L 138.037546 62.988549 
L 138.158698 62.98033 
L 138.279849 62.8393 
L 138.401001 61.802137 
L 138.522152 61.894387 
L 138.643303 61.802454 
L 138.764455 61.88685 
L 138.885606 61.808066 
L 139.006758 61.882743 
L 139.127909 61.811145 
L 139.249061 61.880397 
L 139.370212 61.812936 
L 139.491364 61.879051 
L 139.612515 61.813904 
L 139.733667 61.878423 
L 139.854818 61.814204 
L 139.97597 61.878466 
L 140.097121 61.813767 
L 140.218273 61.879418 
L 140.339424 61.812018 
L 140.460576 61.882718 
L 140.581727 61.804353 
L 140.945182 62.156788 
L 141.308636 62.093288 
L 141.429788 62.165381 
L 141.550939 62.08662 
L 141.672091 62.176157 
L 141.793242 62.063371 
L 141.914394 62.286043 
L 142.156697 62.98549 
L 142.520151 62.920794 
L 142.641302 63.005589 
L 142.762454 62.906708 
L 142.883605 63.027543 
L 143.004757 62.860683 
L 143.125908 63.240386 
L 143.24706 64.531257 
L 143.610514 64.610999 
L 143.731666 64.496355 
L 143.852817 64.644467 
L 143.973969 64.446803 
L 144.09512 64.731925 
L 144.216272 64.241014 
L 144.337423 65.773096 
L 144.458575 72.682862 
L 144.579726 72.51079 
L 144.700878 72.693367 
L 144.822029 72.555037 
L 144.943181 72.659813 
L 145.064332 72.581229 
L 145.306635 72.607194 
L 145.427787 72.593568 
L 145.548938 72.785167 
L 145.67009 73.969708 
L 145.791241 73.893784 
L 145.912393 73.966808 
L 146.154696 73.957527 
L 146.51815 73.921687 
L 146.760453 73.976342 
L 146.881604 74.34908 
L 147.245059 74.316369 
L 147.729665 74.330305 
L 147.850816 74.31722 
L 147.971968 74.41931 
L 148.093119 75.027381 
L 148.456574 74.992698 
L 148.820028 75.021025 
L 149.183483 75.012883 
L 149.425786 75.099541 
L 150.031543 75.120541 
L 150.879603 75.104628 
L 153.181482 75.257546 
L 154.029542 75.259127 
L 154.271845 75.323646 
L 157.058329 75.461243 
L 158.390995 75.478901 
L 159.965965 75.472968 
L 162.02554 75.480114 
L 165.538933 75.523438 
L 167.840811 75.544495 
L 171.596507 75.574392 
L 174.625294 75.583263 
L 176.68487 75.599912 
L 176.806021 73.446931 
L 261.490909 73.446931 
L 261.490909 73.446931 
" style="fill:none;stroke:#8de5a1;stroke-linecap:square;stroke-width:2.5;"/>
   </g>
  </g>
  <g id="axes_4">
   <g id="line2d_4">
    <path clip-path="url(#pac880d548e)" d="M 19.309091 101.672166 
L 99.147919 101.571003 
L 100.117131 101.550682 
L 109.203493 101.434771 
L 114.655309 101.398379 
L 128.830033 101.320054 
L 132.101123 101.304302 
L 136.341425 101.300749 
L 139.612515 101.305266 
L 142.398999 101.299751 
L 144.700878 101.306368 
L 146.51815 101.298595 
L 148.093119 101.307586 
L 149.425786 101.297291 
L 150.758452 101.309088 
L 151.848815 101.295609 
L 152.696876 101.310735 
L 153.544936 101.293852 
L 154.392996 101.312856 
L 154.998754 101.291707 
L 155.604511 101.314907 
L 156.210269 101.300593 
L 156.573723 101.337493 
L 156.937178 101.304883 
L 157.300632 101.341044 
L 157.664087 101.284338 
L 158.027541 101.323649 
L 158.390995 101.279616 
L 158.75445 101.351071 
L 159.117904 101.287803 
L 159.239056 101.35849 
L 159.360207 101.281117 
L 159.481359 101.368192 
L 159.60251 101.264966 
L 159.723662 101.403778 
L 159.965965 100.675445 
L 160.692874 100.738389 
L 160.814025 100.643497 
L 160.935177 100.76835 
L 161.17748 100.266432 
L 161.540934 100.209202 
L 161.662086 100.320855 
L 161.783237 100.184743 
L 161.904389 100.354003 
L 162.02554 100.131126 
L 162.146692 100.470934 
L 162.388994 98.087987 
L 162.510146 98.249034 
L 162.752449 98.184247 
L 162.8736 98.26216 
L 162.994752 98.132724 
L 163.115903 98.327633 
L 163.237055 98.028599 
L 163.358206 98.557224 
L 163.600509 93.735795 
L 163.721661 94.252954 
L 163.842812 93.966579 
L 163.963964 94.146874 
L 164.085115 94.035033 
L 164.327418 94.092749 
L 164.44857 94.013228 
L 164.569721 94.245879 
L 164.812024 91.244762 
L 164.933176 91.643891 
L 165.054327 91.393994 
L 165.175479 91.57277 
L 165.29663 91.441642 
L 165.538933 91.484359 
L 165.660085 91.473837 
L 165.781236 91.601443 
L 166.023539 89.283142 
L 166.144691 89.647226 
L 166.265842 89.396414 
L 166.386993 89.594895 
L 166.508145 89.429637 
L 166.629296 89.568923 
L 166.750448 89.454434 
L 166.992751 89.510145 
L 167.235054 88.474431 
L 167.356205 88.716725 
L 167.477357 88.526177 
L 167.598508 88.692734 
L 167.71966 88.54106 
L 167.840811 88.681842 
L 167.961963 88.550228 
L 168.083114 88.67256 
L 168.446569 88.367141 
L 168.56772 88.511497 
L 168.688872 88.378246 
L 168.810023 88.505953 
L 168.931175 88.381834 
L 169.052326 88.503304 
L 169.173478 88.384034 
L 169.294629 88.50107 
L 169.415781 88.387567 
L 169.536932 88.468007 
L 169.658084 88.320795 
L 169.779235 88.44998 
L 169.900387 88.322648 
L 170.021538 88.450424 
L 170.14269 88.320924 
L 170.263841 88.453427 
L 170.384992 88.316104 
L 170.506144 88.461703 
L 170.627295 88.298064 
L 170.869598 88.649598 
L 170.99075 88.743572 
L 171.111901 88.628803 
L 171.233053 88.756314 
L 171.354204 88.617276 
L 171.475356 88.769309 
L 171.596507 88.600021 
L 171.717659 88.796708 
L 171.83881 88.54138 
L 172.081113 89.708988 
L 172.444568 89.75929 
L 172.565719 89.616225 
L 172.686871 89.790841 
L 172.808022 89.574778 
L 172.929174 89.857778 
L 173.050325 89.426718 
L 173.292628 92.521399 
L 173.41378 92.285871 
L 173.656083 92.35791 
L 173.777234 92.321002 
L 173.898386 92.401267 
L 174.019537 92.272869 
L 174.140689 92.470042 
L 174.26184 92.132055 
L 174.504143 94.934453 
L 174.625294 94.682811 
L 174.867597 94.753094 
L 175.231052 94.688107 
L 175.352203 94.880196 
L 175.473355 94.518735 
L 175.715658 97.964589 
L 175.836809 97.59097 
L 175.957961 97.794778 
L 176.079112 97.672215 
L 176.321415 97.721212 
L 176.442567 97.684498 
L 176.563718 97.800452 
L 176.68487 97.519023 
L 176.927173 100.90109 
L 177.048324 100.453992 
L 177.169476 100.739477 
L 177.290627 100.526873 
L 177.411779 100.694541 
L 177.53293 100.560876 
L 177.654082 100.66314 
L 177.896385 100.596043 
L 178.138688 101.829842 
L 178.259839 101.577963 
L 178.38099 101.768161 
L 178.502142 101.606522 
L 178.623293 101.750474 
L 178.744445 101.619469 
L 178.865596 101.739504 
L 178.986748 101.630796 
L 179.350202 101.985228 
L 179.471354 101.844138 
L 179.592505 101.97094 
L 179.713657 101.851125 
L 179.834808 101.966406 
L 179.95596 101.854647 
L 180.077111 101.963049 
L 180.198263 101.859 
L 180.561717 102.154621 
L 180.682869 102.011795 
L 180.80402 102.14782 
L 180.925172 102.012675 
L 181.046323 102.149488 
L 181.167475 102.009095 
L 181.288626 102.155237 
L 181.409778 101.999808 
L 181.530929 102.173585 
L 181.652081 101.840742 
L 181.773232 101.869798 
L 181.894384 101.745399 
L 182.015535 101.893724 
L 182.136687 101.727026 
L 182.257838 101.913216 
L 182.378989 101.702793 
L 182.500141 101.947317 
L 182.621292 101.646737 
L 182.742444 102.069742 
L 182.984747 99.601383 
L 183.22705 99.735143 
L 183.348201 99.614118 
L 183.469353 99.79855 
L 183.590504 99.544206 
L 183.711656 99.893047 
L 183.832807 99.387265 
L 183.953959 100.248794 
L 184.196262 92.634662 
L 184.317413 93.441656 
L 184.438565 92.992204 
L 184.559716 93.281757 
L 184.680868 93.091252 
L 184.802019 93.204849 
L 185.044322 93.109462 
L 185.165474 93.347904 
L 185.407777 89.839763 
L 185.528928 90.338323 
L 185.65008 90.01265 
L 185.771231 90.258048 
L 185.892383 90.063725 
L 186.013534 90.218202 
L 186.134686 90.101478 
L 186.376988 90.183666 
L 186.619291 88.686891 
L 186.740443 88.980053 
L 186.861594 88.764012 
L 186.982746 88.94255 
L 187.103897 88.7892 
L 187.225049 88.921676 
L 187.3462 88.810311 
L 187.588503 88.862271 
L 187.830806 87.869737 
L 187.951958 88.109456 
L 188.073109 87.918556 
L 188.194261 88.087207 
L 188.315412 87.932032 
L 188.436564 88.077692 
L 188.557715 87.9396 
L 188.678867 88.070699 
L 188.800018 87.948437 
L 188.92117 88.012767 
L 189.042321 87.84 
L 189.163473 87.979724 
L 189.284624 87.84637 
L 189.405776 87.976735 
L 189.526927 87.847914 
L 189.648079 87.976218 
L 189.76923 87.847342 
L 189.890382 87.978503 
L 190.011533 87.840646 
L 190.132685 88.055368 
L 190.253836 87.995491 
L 190.374987 88.099677 
L 190.496139 87.987484 
L 190.61729 88.104031 
L 190.738442 87.98392 
L 190.859593 88.107746 
L 190.980745 87.979325 
L 191.101896 88.114516 
L 191.223048 87.965954 
L 191.344199 88.237944 
L 191.465351 88.20675 
L 191.586502 88.310091 
L 191.707654 88.191556 
L 191.828805 88.319777 
L 191.949957 88.182668 
L 192.071108 88.329718 
L 192.19226 88.169758 
L 192.313411 88.349613 
L 192.434563 88.128527 
L 192.676866 88.91991 
L 192.798017 88.982947 
L 192.919169 88.874645 
L 193.04032 89.009443 
L 193.161472 88.851685 
L 193.282623 89.034622 
L 193.403775 88.818587 
L 193.524926 89.087421 
L 193.646078 88.703936 
L 193.888381 91.043381 
L 194.130684 90.923354 
L 194.251835 90.995026 
L 194.372986 90.876602 
L 194.494138 91.041215 
L 194.615289 90.819663 
L 194.736441 91.129445 
L 194.857592 90.629031 
L 195.099895 94.562194 
L 195.221047 94.219699 
L 195.342198 94.368934 
L 195.584501 94.305387 
L 195.705653 94.368524 
L 195.826804 94.242475 
L 195.947956 94.459214 
L 196.069107 94.054942 
L 196.31141 97.830971 
L 196.432562 97.433028 
L 196.553713 97.64408 
L 196.674865 97.522679 
L 196.917168 97.57665 
L 197.038319 97.522732 
L 197.159471 97.663116 
L 197.280622 97.342844 
L 197.522925 101.012244 
L 197.644077 100.542135 
L 197.765228 100.837391 
L 197.88638 100.620277 
L 198.007531 100.79025 
L 198.128683 100.654409 
L 198.249834 100.761099 
L 198.492137 100.712977 
L 198.73444 101.479413 
L 198.855591 101.307162 
L 198.976743 101.43684 
L 199.097894 101.328926 
L 199.219046 101.421811 
L 199.340197 101.341298 
L 199.5825 101.355304 
L 199.703652 101.386326 
L 199.945955 101.78085 
L 200.067106 101.674292 
L 200.188258 101.758915 
L 200.309409 101.68566 
L 200.551712 101.69245 
L 201.399773 101.958074 
L 201.763227 101.905751 
L 202.126682 101.943829 
L 204.307408 102.074806 
L 204.670863 102.071887 
L 205.034317 102.112677 
L 205.640075 102.089984 
L 206.972741 102.165045 
L 208.305407 102.178377 
L 208.911165 102.202455 
L 209.516922 102.198232 
L 210.12268 102.220825 
L 210.97074 102.206476 
L 212.061103 102.24 
L 212.909164 102.226099 
L 213.999527 102.237683 
L 215.332193 102.22638 
L 216.180254 102.217522 
L 217.755223 102.207543 
L 218.482132 102.172406 
L 219.087889 102.178474 
L 219.209041 101.672166 
L 261.490909 101.672166 
L 261.490909 101.672166 
" style="fill:none;stroke:#ff9f9b;stroke-linecap:square;stroke-width:2.5;"/>
   </g>
  </g>
  <g id="axes_5">
   <g id="line2d_5">
    <path clip-path="url(#p056ae89f5b)" d="M 19.309091 126.683388 
L 140.339424 126.683388 
L 140.460576 128.253262 
L 140.945182 128.22254 
L 141.187485 128.17183 
L 143.24706 128.149426 
L 143.973969 128.218189 
L 147.002756 128.313405 
L 147.245059 128.36451 
L 154.392996 128.608816 
L 156.694875 128.621539 
L 158.027541 128.646275 
L 160.208268 128.669607 
L 178.138688 128.822429 
L 180.198263 128.802677 
L 181.773232 128.797639 
L 183.590504 128.78932 
L 184.923171 128.785653 
L 186.49814 128.776056 
L 187.830806 128.787166 
L 188.92117 128.774666 
L 189.76923 128.775216 
L 190.859593 128.761293 
L 191.707654 128.777001 
L 192.555714 128.759693 
L 193.403775 128.778943 
L 194.009532 128.757345 
L 194.615289 128.767817 
L 195.221047 128.742251 
L 195.584501 128.728504 
L 196.190259 128.705379 
L 196.796016 128.77561 
L 197.159471 128.738005 
L 197.522925 128.775037 
L 197.88638 128.752815 
L 198.007531 128.83353 
L 198.370985 128.779297 
L 198.73444 128.837793 
L 198.855591 128.771727 
L 198.976743 128.84776 
L 199.219046 128.674813 
L 199.5825 128.622682 
L 199.703652 128.692999 
L 199.824803 128.615141 
L 199.945955 128.702637 
L 200.067106 128.600543 
L 200.188258 128.732446 
L 200.430561 128.166811 
L 200.794015 128.128693 
L 200.915167 128.21488 
L 201.036318 128.111962 
L 201.15747 128.236092 
L 201.278621 128.07933 
L 201.399773 128.304631 
L 201.642076 126.952533 
L 201.763227 127.005224 
L 202.126682 127.057631 
L 202.247833 126.931824 
L 202.368984 127.100593 
L 202.490136 126.863956 
L 202.611287 127.248293 
L 202.85359 124.201053 
L 202.974742 124.467791 
L 203.095893 124.352276 
L 203.338196 124.404153 
L 203.459348 124.346839 
L 203.580499 124.458385 
L 203.701651 124.267245 
L 203.822802 124.62447 
L 204.065105 121.272898 
L 204.186257 121.626463 
L 204.307408 121.440128 
L 204.42856 121.544966 
L 204.670863 121.493084 
L 204.792014 121.556735 
L 204.913166 121.405504 
L 205.034317 121.741205 
L 205.27662 117.963034 
L 205.397772 118.440031 
L 205.518923 118.144792 
L 205.640075 118.356934 
L 205.761226 118.197286 
L 205.882378 118.315753 
L 206.124681 118.26603 
L 206.245832 118.32908 
L 206.366983 117.768136 
L 206.488135 116.613634 
L 206.609286 116.902889 
L 206.730438 116.701561 
L 206.851589 116.859872 
L 206.972741 116.731055 
L 207.093892 116.834492 
L 207.336195 116.797445 
L 207.457347 116.831893 
L 207.578498 116.379148 
L 207.69965 115.374707 
L 207.820801 115.649319 
L 207.941953 115.445529 
L 208.063104 115.617128 
L 208.184256 115.465216 
L 208.305407 115.602812 
L 208.426559 115.47729 
L 208.54771 115.590489 
L 208.911165 115.236394 
L 209.032316 115.376707 
L 209.153468 115.252165 
L 209.274619 115.367871 
L 209.395771 115.258994 
L 209.516922 115.361385 
L 209.638074 115.266473 
L 209.759225 115.350481 
L 210.001528 115.217469 
L 210.12268 114.822045 
L 210.243831 114.984903 
L 210.364982 114.843589 
L 210.486134 114.975922 
L 210.607285 114.84828 
L 210.728437 114.973386 
L 210.849588 114.84936 
L 210.97074 114.973726 
L 211.091891 114.846495 
L 211.213043 114.994385 
L 211.334194 114.919099 
L 211.455346 115.031631 
L 211.576497 114.914275 
L 211.697649 115.035126 
L 211.8188 114.910652 
L 211.939952 115.039524 
L 212.061103 114.904708 
L 212.182255 115.048709 
L 212.303406 114.886202 
L 212.545709 115.217935 
L 212.666861 115.319823 
L 212.788012 115.195474 
L 212.909164 115.335533 
L 213.030315 115.179482 
L 213.151467 115.355398 
L 213.272618 115.150819 
L 213.39377 115.404473 
L 213.514921 115.03836 
L 213.757224 117.448308 
L 213.878376 117.287453 
L 214.120679 117.3389 
L 214.484133 117.278984 
L 214.605284 117.39113 
L 214.726436 117.232463 
L 214.968739 117.996636 
L 215.332193 118.046821 
L 215.453345 117.920488 
L 215.574496 118.078286 
L 215.695648 117.878133 
L 215.816799 118.147241 
L 215.937951 117.725555 
L 216.180254 120.905209 
L 216.301405 120.644124 
L 216.543708 120.719579 
L 216.907163 120.642722 
L 217.028314 120.844757 
L 217.149466 120.480654 
L 217.391769 123.744641 
L 217.51292 123.416989 
L 217.634072 123.581645 
L 217.876375 123.52566 
L 218.239829 123.635172 
L 218.36098 123.280792 
L 218.603283 127.118885 
L 218.724435 126.64323 
L 218.845586 126.93639 
L 218.966738 126.725111 
L 219.087889 126.886235 
L 219.209041 126.76273 
L 219.330192 126.851907 
L 219.572495 126.78069 
L 219.693647 127.179622 
L 219.814798 128.074308 
L 219.93595 127.831698 
L 220.057101 128.009378 
L 220.178253 127.861665 
L 220.299404 127.991147 
L 220.420556 127.87437 
L 220.541707 127.981565 
L 220.662859 127.881972 
L 220.78401 127.975322 
L 220.905162 127.887226 
L 221.026313 127.970821 
L 221.147465 127.891131 
L 221.268616 127.967405 
L 221.389768 127.89413 
L 221.510919 127.964777 
L 221.632071 127.8964 
L 221.753222 127.962905 
L 221.874374 127.8977 
L 221.995525 127.96293 
L 222.237828 127.917366 
L 222.601282 127.867517 
L 222.964737 127.916003 
L 223.328191 127.874577 
L 223.691646 127.926928 
L 224.0551 127.884386 
L 224.418555 127.924018 
L 224.782009 127.89775 
L 225.145464 127.936121 
L 225.508918 127.900682 
L 226.114676 127.973484 
L 226.47813 127.939136 
L 227.568493 128.139167 
L 227.931948 128.100732 
L 228.780008 128.251725 
L 229.143463 128.219536 
L 229.264614 128.226831 
L 229.385766 128.346714 
L 229.506917 128.680886 
L 229.628069 128.570753 
L 229.74922 128.661047 
L 229.870372 128.578698 
L 229.991523 128.656883 
L 230.112675 128.581348 
L 230.233826 128.654618 
L 230.354977 128.58447 
L 230.960735 128.834122 
L 231.081886 128.727407 
L 231.203038 128.837384 
L 231.324189 128.721721 
L 231.445341 128.846386 
L 231.566492 128.706366 
L 231.687644 128.88 
L 231.929947 128.211621 
L 232.293401 128.153606 
L 232.414553 128.265639 
L 232.535704 128.135838 
L 232.656856 128.287724 
L 232.778007 128.102584 
L 232.899159 128.35595 
L 233.141462 127.050154 
L 233.626068 127.163576 
L 233.747219 126.970228 
L 233.868371 127.222077 
L 233.989522 126.874165 
L 234.110674 127.436581 
L 234.352976 122.92773 
L 234.474128 123.338831 
L 234.595279 123.147476 
L 234.837582 123.219597 
L 234.958734 123.169395 
L 235.079885 123.293415 
L 235.201037 123.060135 
L 235.322188 123.525202 
L 235.564491 118.738256 
L 235.685643 119.309194 
L 235.806794 118.96542 
L 235.927946 119.207679 
L 236.049097 119.027054 
L 236.170249 119.162289 
L 236.2914 119.067063 
L 236.533703 119.139978 
L 236.654855 118.757032 
L 236.776006 117.924492 
L 236.897158 118.135804 
L 237.018309 117.99223 
L 237.139461 118.099921 
L 237.260612 118.018929 
L 237.502915 118.046806 
L 237.745218 118.126338 
L 237.987521 116.568967 
L 238.108673 116.803473 
L 238.229824 116.648179 
L 238.350975 116.764372 
L 238.472127 116.675719 
L 238.71443 116.703528 
L 238.956733 116.786421 
L 239.077884 116.22005 
L 239.199036 115.109448 
L 239.320187 115.381651 
L 239.441339 115.190281 
L 239.56249 115.344938 
L 239.683642 115.212977 
L 239.804793 115.327917 
L 239.925945 115.228247 
L 240.047096 115.310641 
L 240.289399 115.165271 
L 240.410551 114.764377 
L 240.531702 114.914732 
L 240.652854 114.79064 
L 240.774005 114.901732 
L 240.895157 114.79935 
L 241.016308 114.89476 
L 241.13746 114.805878 
L 241.258611 114.887271 
L 241.864369 114.627126 
L 241.98552 114.717394 
L 242.106672 114.631292 
L 242.227823 114.713845 
L 242.348974 114.634864 
L 242.470126 114.709383 
L 242.83358 114.497708 
L 242.954732 114.593533 
L 243.075883 114.50518 
L 243.197035 114.589981 
L 243.318186 114.507427 
L 243.439338 114.588322 
L 243.560489 114.508815 
L 243.681641 114.586943 
L 243.802792 114.510769 
L 243.923944 114.578232 
L 244.045095 114.481852 
L 244.166247 114.563523 
L 244.287398 114.483265 
L 244.40855 114.563009 
L 244.529701 114.483377 
L 244.650853 114.563207 
L 244.772004 114.482816 
L 244.893156 114.564382 
L 245.014307 114.48 
L 245.25661 114.538133 
L 245.377762 114.610616 
L 245.498913 114.534855 
L 245.620065 114.612521 
L 245.741216 114.533237 
L 245.862368 114.614218 
L 245.983519 114.531165 
L 246.104671 114.617205 
L 246.225822 114.525407 
L 246.468125 114.626399 
L 246.589276 114.699628 
L 246.710428 114.619874 
L 246.831579 114.703848 
L 246.952731 114.615969 
L 247.073882 114.708236 
L 247.195034 114.610245 
L 247.316185 114.717119 
L 247.437337 114.591642 
L 247.67964 114.954833 
L 247.800791 115.006402 
L 247.921943 114.9349 
L 248.043094 115.017454 
L 248.164246 114.925889 
L 248.285397 115.0268 
L 248.406549 114.91415 
L 248.5277 115.044899 
L 248.648852 114.875747 
L 248.891155 115.647386 
L 249.496912 115.688852 
L 249.618064 115.576793 
L 249.739215 115.712117 
L 249.860367 115.529611 
L 250.10267 116.44544 
L 250.829578 116.352892 
L 250.95073 116.521312 
L 251.071881 116.277835 
L 251.314184 117.777348 
L 251.435336 117.706719 
L 252.041093 117.641885 
L 252.162245 117.815214 
L 252.283396 117.554906 
L 252.525699 119.225376 
L 252.646851 119.146493 
L 253.010305 119.092518 
L 253.131457 119.240919 
L 253.252608 119.035605 
L 253.37376 119.332176 
L 253.494911 118.834187 
L 253.737214 123.05147 
L 253.858366 122.638101 
L 253.979517 122.847492 
L 254.100669 122.733637 
L 254.342971 122.788074 
L 254.464123 122.724865 
L 254.585274 122.871385 
L 254.706426 122.554125 
L 254.948729 125.995087 
L 255.06988 125.577029 
L 255.191032 125.828211 
L 255.312183 125.653918 
L 255.433335 125.779199 
L 255.675638 125.741176 
L 255.917941 125.650589 
L 256.160244 127.367603 
L 256.281395 127.100877 
L 256.402547 127.281891 
L 256.523698 127.141052 
L 256.64485 127.256247 
L 256.766001 127.160865 
L 256.887153 127.238012 
L 257.129456 127.20248 
L 257.250607 127.361461 
L 257.371759 127.811092 
L 257.49291 127.671054 
L 257.614062 127.778521 
L 257.735213 127.687254 
L 257.856365 127.767615 
L 257.977516 127.696009 
L 258.219819 127.705342 
L 258.462122 127.778793 
L 258.583273 127.989856 
L 258.704425 127.904784 
L 258.825576 127.976048 
L 259.067879 127.971161 
L 259.431334 127.919347 
L 259.794788 128.019689 
L 260.158243 127.970759 
L 260.521697 128.012335 
L 260.885152 127.974626 
L 261.248606 128.009337 
L 261.490909 128.008552 
L 261.490909 128.008552 
" style="fill:none;stroke:#d0bbff;stroke-linecap:square;stroke-width:2.5;"/>
   </g>
  </g>
 </g>
 <defs>
  <clipPath id="p0a229f34af">
   <rect height="15.84" width="266.4" x="7.2" y="7.2"/>
  </clipPath>
  <clipPath id="pe44d342c00">
   <rect height="15.84" width="266.4" x="7.2" y="33.84"/>
  </clipPath>
  <clipPath id="p0283c0cb17">
   <rect height="15.84" width="266.4" x="7.2" y="60.48"/>
  </clipPath>
  <clipPath id="pac880d548e">
   <rect height="15.84" width="266.4" x="7.2" y="87.12"/>
  </clipPath>
  <clipPath id="p056ae89f5b">
   <rect height="15.84" width="266.4" x="7.2" y="113.76"/>
  </clipPath>
 </defs>
</svg>
