<?xml version="1.0" encoding="utf-8" standalone="no"?>
<!DOCTYPE svg PUBLIC "-//W3C//DTD SVG 1.1//EN"
  "http://www.w3.org/Graphics/SVG/1.1/DTD/svg11.dtd">
<!-- Created with matplotlib (https://matplotlib.org/) -->
<svg height="192.104602pt" version="1.1" viewBox="0 0 277.311349 192.104602" width="277.311349pt" xmlns="http://www.w3.org/2000/svg" xmlns:xlink="http://www.w3.org/1999/xlink">
 <defs>
  <style type="text/css">
*{stroke-linecap:butt;stroke-linejoin:round;}
  </style>
 </defs>
 <g id="figure_1">
  <g id="patch_1">
   <path d="M 0 192.104602 
L 277.311349 192.104602 
L 277.311349 0 
L 0 0 
z
" style="fill:#ffffff;"/>
  </g>
  <g id="axes_1">
   <g id="patch_2">
    <path d="M 50.906467 145.314507 
L 273.711349 145.314507 
L 273.711349 5.729433 
L 50.906467 5.729433 
z
" style="fill:#ffffff;"/>
   </g>
   <g id="matplotlib.axis_1">
    <g id="xtick_1">
     <g id="line2d_1">
      <defs>
       <path d="M 0 0 
L 0 3 
" id="m1b605686f8" style="stroke:#262626;stroke-width:0.5;"/>
      </defs>
      <g>
       <use style="fill:#262626;stroke:#262626;stroke-width:0.5;" x="60.190004" xlink:href="#m1b605686f8" y="145.314507"/>
      </g>
     </g>
     <g id="text_1">
      <!-- PreC -->
      <defs>
       <path d="M 32.90625 29 
C 44.90625 29 54.703125 38.234375 54.703125 49.046875 
C 54.703125 59.65625 45.296875 69 32.296875 69 
L 8.90625 69 
L 8.90625 0 
L 17.296875 0 
L 17.296875 29 
z
M 30.09375 63.390625 
C 41.703125 63.390625 46.796875 56.21875 46.796875 49.046875 
C 46.796875 42.359375 42.09375 34.796875 30.09375 34.796875 
L 17.09375 34.796875 
L 17.09375 63.390625 
z
" id="CMSS17-80"/>
       <path d="M 14.90625 21.390625 
C 14.90625 30.84375 21.796875 37.171875 30.59375 37.375 
L 30.59375 44 
C 24.203125 43.890625 18.203125 40.6875 14.59375 35.46875 
L 14.59375 43.484375 
L 7.5 43.484375 
L 7.5 0 
L 14.90625 0 
z
" id="CMSS17-114"/>
       <path d="M 39.09375 21.484375 
C 39.09375 24.796875 38.90625 31.265625 35.703125 36.671875 
C 32.203125 42.390625 26.5 44 22.203125 44 
C 11.796875 44 3 34.125 3 21.296875 
C 3 9.046875 12.09375 -1 23.59375 -1 
C 28.09375 -1 33.59375 0.296875 38.59375 3.890625 
C 38.59375 4.296875 38.40625 6.46875 38.296875 6.578125 
C 38.296875 6.765625 38 9.828125 38 10.234375 
C 33.203125 6.375 27.703125 5.09375 23.703125 5.09375 
C 17.296875 5.09375 10.40625 10.421875 10.09375 21.484375 
z
M 10.90625 27 
C 12.203125 32.59375 16.59375 37.890625 22.203125 37.890625 
C 23.703125 37.890625 30.703125 37.6875 32.5 27 
z
" id="CMSS17-101"/>
       <path d="M 54.703125 11.015625 
C 48 6.5 44.90625 5.1875 36.796875 5.1875 
C 22.796875 5.1875 14.59375 20.375 14.59375 34.234375 
C 14.59375 49.015625 23 63.59375 37.203125 63.59375 
C 43.59375 63.59375 47.796875 61.78125 52.90625 58.5625 
L 54.296875 66.484375 
C 49.5 68.890625 43.40625 70 37.296875 70 
C 18.09375 70 6.203125 52.234375 6.203125 34.234375 
C 6.203125 14.4375 20.296875 -1.203125 36.296875 -1.203125 
C 44.90625 -1.203125 47.90625 -0.5 55.296875 4.1875 
z
" id="CMSS17-67"/>
      </defs>
      <g style="fill:#262626;" transform="translate(54.681464 171.24603)rotate(-45)scale(0.1 -0.1)">
       <use transform="scale(0.996264)" xlink:href="#CMSS17-80"/>
       <use transform="translate(59.735586 0)scale(0.996264)" xlink:href="#CMSS17-114"/>
       <use transform="translate(91.645359 0)scale(0.996264)" xlink:href="#CMSS17-101"/>
       <use transform="translate(133.284181 0)scale(0.996264)" xlink:href="#CMSS17-67"/>
      </g>
     </g>
    </g>
    <g id="xtick_2">
     <g id="line2d_2">
      <g>
       <use style="fill:#262626;stroke:#262626;stroke-width:0.5;" x="78.757078" xlink:href="#m1b605686f8" y="145.314507"/>
      </g>
     </g>
     <g id="text_2">
      <!-- Ang -->
      <defs>
       <path d="M 35.5 69 
L 26.90625 69 
L 2.59375 0 
L 10.203125 0 
L 17.203125 20 
L 44 20 
L 51.09375 0 
L 59.796875 0 
z
M 42.09375 25.59375 
L 19.09375 25.59375 
C 23.90625 39.53125 29.90625 56.84375 30.59375 61.3125 
L 30.703125 61.3125 
C 31.40625 57.234375 33.40625 51.265625 35.09375 46.1875 
z
" id="CMSS17-65"/>
       <path d="M 40.90625 29.34375 
C 40.90625 35.671875 39.40625 44 28.09375 44 
C 21.703125 44 17.5 40.6875 14.703125 37.28125 
L 14.703125 43.484375 
L 7.40625 43.484375 
L 7.40625 0 
L 15 0 
L 15 24.3125 
C 15 30.65625 17.40625 37.890625 24.203125 37.890625 
C 33 37.890625 33.296875 31.953125 33.296875 28.53125 
L 33.296875 0 
L 40.90625 0 
z
" id="CMSS17-110"/>
       <path d="M 44.5 44 
C 38.796875 43.890625 33.90625 42.796875 29.90625 40.890625 
C 26.59375 43.484375 23.203125 44 20.90625 44 
C 12.203125 44 5.59375 36.8125 5.59375 28.5 
C 5.59375 23.140625 8.59375 19.09375 8.796875 18.890625 
C 7 16.390625 6 13.6875 6 10.6875 
C 6 7.1875 7.40625 4.6875 8.5 3.296875 
C 3.296875 0.09375 2.59375 -4.8125 2.59375 -6.703125 
C 2.59375 -14 11.703125 -20 23.40625 -20 
C 35.203125 -20 44.296875 -14 44.296875 -6.609375 
C 44.296875 7.1875 29 7.296875 24.796875 7.296875 
L 16.703125 7.296875 
C 15.203125 7.296875 11.203125 7.296875 11.203125 12.390625 
C 11.203125 14.390625 12.09375 15.6875 12.203125 15.796875 
C 13.703125 14.6875 16.796875 13 20.90625 13 
C 29.203125 13 36.09375 19.984375 36.09375 28.5 
C 36.09375 33.25 33.90625 36.703125 33 37.890625 
L 33.296875 37.890625 
C 33.59375 37.890625 37.796875 38.1875 39.296875 38.1875 
C 42.5 38.1875 42.796875 38.09375 45.59375 37.796875 
z
M 20.90625 18.5 
C 17.5 18.5 12.703125 20.578125 12.703125 28.5 
C 12.703125 37.109375 18.203125 38.484375 20.796875 38.484375 
C 24.203125 38.484375 29 36.40625 29 28.5 
C 29 19.875 23.5 18.5 20.90625 18.5 
z
M 24.703125 0 
C 27.09375 0 37.203125 0 37.203125 -6.8125 
C 37.203125 -11.109375 31 -14.5 23.5 -14.5 
C 15.90625 -14.5 9.703125 -11.203125 9.703125 -6.703125 
C 9.703125 -6.203125 9.703125 0 16.59375 0 
z
" id="CMSS17-103"/>
      </defs>
      <g style="fill:#262626;" transform="translate(74.588978 168.565148)rotate(-45)scale(0.1 -0.1)">
       <use transform="scale(0.996264)" xlink:href="#CMSS17-65"/>
       <use transform="translate(62.217855 0)scale(0.996264)" xlink:href="#CMSS17-110"/>
       <use transform="translate(110.422798 0)scale(0.996264)" xlink:href="#CMSS17-103"/>
      </g>
     </g>
    </g>
    <g id="xtick_3">
     <g id="line2d_3">
      <g>
       <use style="fill:#262626;stroke:#262626;stroke-width:0.5;" x="97.324151" xlink:href="#m1b605686f8" y="145.314507"/>
      </g>
     </g>
     <g id="text_3">
      <!-- Par -->
      <defs>
       <path d="M 37.59375 27.953125 
C 37.59375 37.484375 30.90625 44 21.90625 44 
C 17.5 44 12.703125 43.1875 7.203125 39.984375 
L 7.796875 33.328125 
C 10.296875 35.15625 14.59375 38.09375 21.796875 38.09375 
C 26.90625 38.09375 30 34.140625 30 27.84375 
L 30 24 
C 14 23.5 4 18.890625 4 11.109375 
C 4 7.0625 6.5 -1 14.796875 -1 
C 16.296875 -1 24.40625 -0.8125 30.203125 3.5 
L 30.203125 -0.203125 
L 37.59375 -0.203125 
z
M 30 12.875 
C 30 11.109375 30 8.734375 27 6.96875 
C 24.40625 5.296875 21.09375 5.09375 19.703125 5.09375 
C 14.703125 5.09375 11.296875 7.859375 11.296875 11.296875 
C 11.296875 18.203125 26.90625 18.890625 30 19 
z
" id="CMSS17-97"/>
      </defs>
      <g style="fill:#262626;" transform="translate(94.134478 166.608295)rotate(-45)scale(0.1 -0.1)">
       <use transform="scale(0.996264)" xlink:href="#CMSS17-80"/>
       <use transform="translate(57.133132 0)scale(0.996264)" xlink:href="#CMSS17-97"/>
       <use transform="translate(99.452599 0)scale(0.996264)" xlink:href="#CMSS17-114"/>
      </g>
     </g>
    </g>
    <g id="xtick_4">
     <g id="line2d_4">
      <g>
       <use style="fill:#262626;stroke:#262626;stroke-width:0.5;" x="115.891224" xlink:href="#m1b605686f8" y="145.314507"/>
      </g>
     </g>
     <g id="text_4">
      <!-- Fro -->
      <defs>
       <path d="M 45.59375 31 
L 45.59375 37.09375 
L 17.203125 37.09375 
L 17.203125 62.390625 
L 29.40625 62.390625 
C 30.59375 62.390625 31.796875 62.296875 33 62.296875 
L 49.5 62.296875 
L 49.5 68.796875 
L 8.796875 68.796875 
L 8.796875 0 
L 17.203125 0 
L 17.203125 31 
z
" id="CMSS17-70"/>
       <path d="M 44.203125 21.1875 
C 44.203125 33.984375 34.703125 44 23.5 44 
C 12 44 2.703125 33.6875 2.703125 21.1875 
C 2.703125 8.5 12.296875 -1 23.40625 -1 
C 34.796875 -1 44.203125 8.796875 44.203125 21.1875 
z
M 23.5 5.296875 
C 16.40625 5.296875 10.296875 11.09375 10.296875 21.984375 
C 10.296875 33.59375 17.40625 37.890625 23.40625 37.890625 
C 29.90625 37.890625 36.59375 33.1875 36.59375 21.984375 
C 36.59375 10.6875 30.09375 5.296875 23.5 5.296875 
z
" id="CMSS17-111"/>
      </defs>
      <g style="fill:#262626;" transform="translate(112.779817 166.451764)rotate(-45)scale(0.1 -0.1)">
       <use transform="scale(0.996264)" xlink:href="#CMSS17-70"/>
       <use transform="translate(50.687105 0)scale(0.996264)" xlink:href="#CMSS17-114"/>
       <use transform="translate(82.596878 0)scale(0.996264)" xlink:href="#CMSS17-111"/>
      </g>
     </g>
    </g>
    <g id="xtick_5">
     <g id="line2d_5">
      <g>
       <use style="fill:#262626;stroke:#262626;stroke-width:0.5;" x="134.458298" xlink:href="#m1b605686f8" y="145.314507"/>
      </g>
     </g>
     <g id="text_5">
      <!-- PostC -->
      <defs>
       <path d="M 32.203125 40.984375 
C 26.296875 43.796875 21.703125 44 18.703125 44 
C 11.59375 44 3.09375 41.484375 3.09375 31.390625 
C 3.09375 21.296875 14.09375 19.09375 17.09375 18.484375 
C 21.703125 17.59375 26.796875 16.59375 26.796875 11.59375 
C 26.796875 5.296875 19.59375 5.296875 18.296875 5.296875 
C 14.296875 5.296875 8.796875 6.390625 3.796875 9.984375 
L 2.59375 3.296875 
C 8.296875 0 13.796875 -1 18.40625 -1 
C 30.703125 -1 33.796875 6.5 33.796875 12.1875 
C 33.796875 17.09375 31 20.390625 29.09375 21.890625 
C 25.796875 24.484375 24.59375 24.796875 16.40625 26.484375 
C 15 26.6875 10.09375 27.796875 10.09375 32.296875 
C 10.09375 37.984375 16.40625 37.984375 17.796875 37.984375 
C 24.296875 37.984375 28.296875 35.984375 31 34.484375 
z
" id="CMSS17-115"/>
       <path d="M 16.703125 37.1875 
L 29.703125 37.1875 
L 29.703125 43 
L 16.703125 43 
L 16.703125 55 
L 9.59375 55 
L 9.59375 43 
L 1.703125 43 
L 1.703125 37.1875 
L 9.40625 37.1875 
L 9.40625 11.734375 
C 9.40625 6 10.703125 -1 17.296875 -1 
C 22.296875 -1 26.90625 0.390625 31.296875 2.6875 
L 29.703125 8.609375 
C 27.296875 6.5 24.40625 5.296875 21.296875 5.296875 
C 16.90625 5.296875 16.703125 10.921875 16.703125 13.4375 
z
" id="CMSS17-116"/>
      </defs>
      <g style="fill:#262626;" transform="translate(127.433206 174.279134)rotate(-45)scale(0.1 -0.1)">
       <use transform="scale(0.996264)" xlink:href="#CMSS17-80"/>
       <use transform="translate(57.133132 0)scale(0.996264)" xlink:href="#CMSS17-111"/>
       <use transform="translate(103.976756 0)scale(0.996264)" xlink:href="#CMSS17-115"/>
       <use transform="translate(139.890298 0)scale(0.996264)" xlink:href="#CMSS17-116"/>
       <use transform="translate(173.721865 0)scale(0.996264)" xlink:href="#CMSS17-67"/>
      </g>
     </g>
    </g>
    <g id="xtick_6">
     <g id="line2d_6">
      <g>
       <use style="fill:#262626;stroke:#262626;stroke-width:0.5;" x="153.025371" xlink:href="#m1b605686f8" y="145.314507"/>
      </g>
     </g>
     <g id="text_6">
      <!-- SupM -->
      <defs>
       <path d="M 43.703125 66.09375 
C 39.296875 68.6875 34.5 71 26.40625 71 
C 13.5 71 5.203125 61.46875 5.203125 51.703125 
C 5.203125 47.875 6.296875 43.546875 10.203125 39.125 
C 14.09375 34.6875 18.5 33.484375 24.09375 32.078125 
C 26.40625 31.46875 30.296875 30.359375 31 30.0625 
C 36.59375 27.84375 39.296875 22.71875 39.296875 17.875 
C 39.296875 11.53125 34.40625 4.796875 25.703125 4.796875 
C 22.703125 4.796875 13.90625 5.296875 5.59375 12.953125 
L 4.203125 5 
C 12.40625 -1 21.296875 -2 25.796875 -2 
C 38.09375 -2 46.90625 7.71875 46.90625 18.78125 
C 46.90625 22.8125 45.703125 27.953125 41.5 32.6875 
C 37.40625 37.203125 33.796875 38.21875 25.59375 40.4375 
C 20.90625 41.640625 17.90625 42.453125 15.40625 45.5625 
C 13.703125 47.78125 12.796875 49.890625 12.796875 52.609375 
C 12.796875 58.25 17.59375 64.390625 26.40625 64.390625 
C 30.796875 64.390625 36.5 63.484375 42.296875 58.046875 
z
" id="CMSS17-83"/>
       <path d="M 40.90625 43 
L 33.296875 43 
L 33.296875 15.25 
C 33.296875 7.8125 27.90625 4.796875 22.203125 4.796875 
C 15.59375 4.796875 15 7 15 11.125 
L 15 43 
L 7.40625 43 
L 7.40625 10.625 
C 7.40625 2.796875 10.09375 -1 17 -1 
C 20.40625 -1 28.09375 -0.203125 33.5 4.796875 
L 33.5 -0.203125 
L 40.90625 -0.203125 
z
" id="CMSS17-117"/>
       <path d="M 15.09375 4.296875 
C 18.40625 1.09375 22.90625 -1 27.703125 -1 
C 37 -1 45 8.640625 45 21.59375 
C 45 33.546875 39 44 30.40625 44 
C 25.40625 44 19.40625 42.1875 14.90625 38.59375 
L 14.90625 43.1875 
L 7.5 43.1875 
L 7.5 -20 
L 15.09375 -20 
z
M 15.09375 32.625 
C 15.90625 33.84375 19.296875 37.6875 24.796875 37.6875 
C 31.796875 37.6875 37.40625 30.40625 37.40625 21.59375 
C 37.40625 11.578125 30.59375 5.09375 23.90625 5.09375 
C 21.90625 5.09375 19.796875 5.59375 17.796875 7.3125 
C 15.09375 9.75 15.09375 11.265625 15.09375 12.6875 
z
" id="CMSS17-112"/>
       <path d="M 49.90625 37.078125 
L 45.09375 23.0625 
C 44.296875 20.484375 41.59375 12.421875 41 9.25 
L 40.90625 9.25 
C 40.59375 11.234375 40 13.328125 38.40625 18.390625 
C 37.5 21.375 36.5 24.453125 35.5 27.234375 
L 20.703125 69 
L 9 69 
L 9 0 
L 16.796875 0 
L 16.796875 60.921875 
L 16.90625 60.921875 
C 16.90625 60.828125 17.796875 56.453125 23.90625 39.0625 
L 37.09375 1.59375 
L 44.5 1.59375 
L 56.40625 34.890625 
C 57.203125 37.171875 59.703125 44.421875 60.796875 47.90625 
C 61.796875 50.890625 64.296875 58.25 64.90625 61.125 
L 65 61.125 
L 65 0 
L 72.90625 0 
L 72.90625 69 
L 61.296875 69 
z
" id="CMSS17-77"/>
      </defs>
      <g style="fill:#262626;" transform="translate(146.10789 174.063912)rotate(-45)scale(0.1 -0.1)">
       <use transform="scale(0.996264)" xlink:href="#CMSS17-83"/>
       <use transform="translate(52.048516 0)scale(0.996264)" xlink:href="#CMSS17-117"/>
       <use transform="translate(100.253459 0)scale(0.996264)" xlink:href="#CMSS17-112"/>
       <use transform="translate(148.458402 0)scale(0.996264)" xlink:href="#CMSS17-77"/>
      </g>
     </g>
    </g>
    <g id="xtick_7">
     <g id="line2d_7">
      <g>
       <use style="fill:#262626;stroke:#262626;stroke-width:0.5;" x="171.592445" xlink:href="#m1b605686f8" y="145.314507"/>
      </g>
     </g>
     <g id="text_7">
      <!-- Cer -->
      <g style="fill:#262626;" transform="translate(168.334283 166.745273)rotate(-45)scale(0.1 -0.1)">
       <use transform="scale(0.996264)" xlink:href="#CMSS17-67"/>
       <use transform="translate(59.855772 0)scale(0.996264)" xlink:href="#CMSS17-101"/>
       <use transform="translate(101.494594 0)scale(0.996264)" xlink:href="#CMSS17-114"/>
      </g>
     </g>
    </g>
    <g id="xtick_8">
     <g id="line2d_8">
      <g>
       <use style="fill:#262626;stroke:#262626;stroke-width:0.5;" x="190.159518" xlink:href="#m1b605686f8" y="145.314507"/>
      </g>
     </g>
     <g id="text_8">
      <!-- Temp -->
      <defs>
       <path d="M 36.203125 62.296875 
L 44.5 62.296875 
C 45.703125 62.296875 46.90625 62.1875 48.09375 62.1875 
L 60.59375 62.1875 
L 60.59375 68.6875 
L 3.40625 68.6875 
L 3.40625 62.1875 
L 15.90625 62.1875 
C 17.09375 62.1875 18.296875 62.296875 19.5 62.296875 
L 27.796875 62.296875 
L 27.796875 0 
L 36.203125 0 
z
" id="CMSS17-84"/>
       <path d="M 67 29.34375 
C 67 36.078125 65.296875 44 54.09375 44 
C 46.59375 44 42.09375 39.296875 40.09375 36.375 
C 38.296875 41.6875 34.09375 44 28.09375 44 
C 21.296875 44 17 40.09375 14.703125 37.28125 
L 14.703125 43.484375 
L 7.40625 43.484375 
L 7.40625 0 
L 15 0 
L 15 24.3125 
C 15 30.25 17.203125 37.890625 24.296875 37.890625 
C 33.40625 37.890625 33.40625 31.453125 33.40625 28.53125 
L 33.40625 0 
L 41 0 
L 41 24.3125 
C 41 30.25 43.203125 37.890625 50.296875 37.890625 
C 59.40625 37.890625 59.40625 31.453125 59.40625 28.53125 
L 59.40625 0 
L 67 0 
z
" id="CMSS17-109"/>
      </defs>
      <g style="fill:#262626;" transform="translate(183.633424 173.281138)rotate(-45)scale(0.1 -0.1)">
       <use transform="scale(0.996264)" xlink:href="#CMSS17-84"/>
       <use transform="translate(56.012199 0)scale(0.996264)" xlink:href="#CMSS17-101"/>
       <use transform="translate(97.651021 0)scale(0.996264)" xlink:href="#CMSS17-109"/>
       <use transform="translate(171.880275 0)scale(0.996264)" xlink:href="#CMSS17-112"/>
      </g>
     </g>
    </g>
    <g id="xtick_9">
     <g id="line2d_9">
      <g>
       <use style="fill:#262626;stroke:#262626;stroke-width:0.5;" x="208.726592" xlink:href="#m1b605686f8" y="145.314507"/>
      </g>
     </g>
     <g id="text_9">
      <!-- Occ -->
      <defs>
       <path d="M 64 34.390625 
C 64 55.328125 50.296875 71 34.59375 71 
C 18.90625 71 5.203125 55.234375 5.203125 34.390625 
C 5.203125 13.359375 19.09375 -2 34.59375 -2 
C 50.09375 -2 64 13.359375 64 34.390625 
z
M 34.59375 4.296875 
C 23.59375 4.296875 13.59375 16.671875 13.59375 35.703125 
C 13.59375 54.21875 24.203125 64.6875 34.59375 64.6875 
C 45 64.6875 55.59375 54.21875 55.59375 35.703125 
C 55.59375 16.578125 45.5 4.296875 34.59375 4.296875 
z
" id="CMSS17-79"/>
       <path d="M 38.5 39.6875 
C 38.5 40.390625 33.90625 42.390625 32.703125 42.796875 
C 29.40625 44 25.203125 44 24.09375 44 
C 11.09375 44 3.296875 32.6875 3.296875 21.296875 
C 3.296875 9.296875 12 -1 23.703125 -1 
C 30.40625 -1 35.203125 1.1875 39.09375 3.796875 
L 38.5 10.390625 
C 34.203125 7.09375 29.203125 5.296875 23.796875 5.296875 
C 16 5.296875 10.90625 12.09375 10.90625 21.390625 
C 10.90625 28.59375 14.203125 37.6875 24.203125 37.6875 
C 29.703125 37.6875 32.796875 36.59375 37.40625 33.484375 
z
" id="CMSS17-99"/>
      </defs>
      <g style="fill:#262626;" transform="translate(204.763976 168.154181)rotate(-45)scale(0.1 -0.1)">
       <use transform="scale(0.996264)" xlink:href="#CMSS17-79"/>
       <use transform="translate(69.024255 0)scale(0.996264)" xlink:href="#CMSS17-99"/>
       <use transform="translate(110.663077 0)scale(0.996264)" xlink:href="#CMSS17-99"/>
      </g>
     </g>
    </g>
    <g id="xtick_10">
     <g id="line2d_10">
      <g>
       <use style="fill:#262626;stroke:#262626;stroke-width:0.5;" x="227.293665" xlink:href="#m1b605686f8" y="145.314507"/>
      </g>
     </g>
     <g id="text_10">
      <!-- Rol -->
      <defs>
       <path d="M 39.40625 32.796875 
L 39.59375 32.890625 
C 55.203125 38.28125 55.296875 48.828125 55.296875 50.6875 
C 55.296875 59.96875 45.703125 69 31.296875 69 
L 8.90625 69 
L 8.90625 0 
L 17.09375 0 
L 17.09375 31.890625 
L 31.796875 31.890625 
L 49.5 0 
L 57.90625 0 
z
M 17.09375 38 
L 17.09375 63.390625 
L 30.203125 63.390625 
C 42.90625 63.390625 47.40625 56.359375 47.40625 50.6875 
C 47.40625 45.421875 43.40625 38 30.203125 38 
z
" id="CMSS17-82"/>
       <path d="M 14.796875 69 
L 7.40625 69 
L 7.40625 0 
L 14.796875 0 
z
" id="CMSS17-108"/>
      </defs>
      <g style="fill:#262626;" transform="translate(224.177373 166.461535)rotate(-45)scale(0.1 -0.1)">
       <use transform="scale(0.996264)" xlink:href="#CMSS17-82"/>
       <use transform="translate(60.416155 0)scale(0.996264)" xlink:href="#CMSS17-111"/>
       <use transform="translate(107.259778 0)scale(0.996264)" xlink:href="#CMSS17-108"/>
      </g>
     </g>
    </g>
    <g id="xtick_11">
     <g id="line2d_11">
      <g>
       <use style="fill:#262626;stroke:#262626;stroke-width:0.5;" x="245.860739" xlink:href="#m1b605686f8" y="145.314507"/>
      </g>
     </g>
     <g id="text_11">
      <!-- Hes -->
      <defs>
       <path d="M 57.40625 69 
L 49 69 
L 49 39 
L 17.203125 39 
L 17.203125 69 
L 8.796875 69 
L 8.796875 0 
L 17.203125 0 
L 17.203125 32.890625 
L 49 32.890625 
L 49 0 
L 57.40625 0 
z
" id="CMSS17-72"/>
      </defs>
      <g style="fill:#262626;" transform="translate(242.211206 167.528014)rotate(-45)scale(0.1 -0.1)">
       <use transform="scale(0.996264)" xlink:href="#CMSS17-72"/>
       <use transform="translate(66.061519 0)scale(0.996264)" xlink:href="#CMSS17-101"/>
       <use transform="translate(107.700341 0)scale(0.996264)" xlink:href="#CMSS17-115"/>
      </g>
     </g>
    </g>
    <g id="xtick_12">
     <g id="line2d_12">
      <g>
       <use style="fill:#262626;stroke:#262626;stroke-width:0.5;" x="264.427812" xlink:href="#m1b605686f8" y="145.314507"/>
      </g>
     </g>
     <g id="text_12">
      <!-- Fus -->
      <g style="fill:#262626;" transform="translate(261.110949 166.862676)rotate(-45)scale(0.1 -0.1)">
       <use transform="scale(0.996264)" xlink:href="#CMSS17-70"/>
       <use transform="translate(50.687105 0)scale(0.996264)" xlink:href="#CMSS17-117"/>
       <use transform="translate(98.892048 0)scale(0.996264)" xlink:href="#CMSS17-115"/>
      </g>
     </g>
    </g>
    <g id="xtick_13">
     <g id="line2d_13">
      <defs>
       <path d="M 0 0 
L 0 1.5 
" id="m02e49637cb" style="stroke:#262626;stroke-width:0.5;"/>
      </defs>
      <g>
       <use style="fill:#262626;stroke:#262626;stroke-width:0.5;" x="52.763175" xlink:href="#m02e49637cb" y="145.314507"/>
      </g>
     </g>
    </g>
    <g id="xtick_14">
     <g id="line2d_14">
      <g>
       <use style="fill:#262626;stroke:#262626;stroke-width:0.5;" x="56.476589" xlink:href="#m02e49637cb" y="145.314507"/>
      </g>
     </g>
    </g>
    <g id="xtick_15">
     <g id="line2d_15">
      <g>
       <use style="fill:#262626;stroke:#262626;stroke-width:0.5;" x="63.903419" xlink:href="#m02e49637cb" y="145.314507"/>
      </g>
     </g>
    </g>
    <g id="xtick_16">
     <g id="line2d_16">
      <g>
       <use style="fill:#262626;stroke:#262626;stroke-width:0.5;" x="67.616833" xlink:href="#m02e49637cb" y="145.314507"/>
      </g>
     </g>
    </g>
    <g id="xtick_17">
     <g id="line2d_17">
      <g>
       <use style="fill:#262626;stroke:#262626;stroke-width:0.5;" x="71.330248" xlink:href="#m02e49637cb" y="145.314507"/>
      </g>
     </g>
    </g>
    <g id="xtick_18">
     <g id="line2d_18">
      <g>
       <use style="fill:#262626;stroke:#262626;stroke-width:0.5;" x="75.043663" xlink:href="#m02e49637cb" y="145.314507"/>
      </g>
     </g>
    </g>
    <g id="xtick_19">
     <g id="line2d_19">
      <g>
       <use style="fill:#262626;stroke:#262626;stroke-width:0.5;" x="82.470492" xlink:href="#m02e49637cb" y="145.314507"/>
      </g>
     </g>
    </g>
    <g id="xtick_20">
     <g id="line2d_20">
      <g>
       <use style="fill:#262626;stroke:#262626;stroke-width:0.5;" x="86.183907" xlink:href="#m02e49637cb" y="145.314507"/>
      </g>
     </g>
    </g>
    <g id="xtick_21">
     <g id="line2d_21">
      <g>
       <use style="fill:#262626;stroke:#262626;stroke-width:0.5;" x="89.897322" xlink:href="#m02e49637cb" y="145.314507"/>
      </g>
     </g>
    </g>
    <g id="xtick_22">
     <g id="line2d_22">
      <g>
       <use style="fill:#262626;stroke:#262626;stroke-width:0.5;" x="93.610736" xlink:href="#m02e49637cb" y="145.314507"/>
      </g>
     </g>
    </g>
    <g id="xtick_23">
     <g id="line2d_23">
      <g>
       <use style="fill:#262626;stroke:#262626;stroke-width:0.5;" x="101.037566" xlink:href="#m02e49637cb" y="145.314507"/>
      </g>
     </g>
    </g>
    <g id="xtick_24">
     <g id="line2d_24">
      <g>
       <use style="fill:#262626;stroke:#262626;stroke-width:0.5;" x="104.75098" xlink:href="#m02e49637cb" y="145.314507"/>
      </g>
     </g>
    </g>
    <g id="xtick_25">
     <g id="line2d_25">
      <g>
       <use style="fill:#262626;stroke:#262626;stroke-width:0.5;" x="108.464395" xlink:href="#m02e49637cb" y="145.314507"/>
      </g>
     </g>
    </g>
    <g id="xtick_26">
     <g id="line2d_26">
      <g>
       <use style="fill:#262626;stroke:#262626;stroke-width:0.5;" x="112.17781" xlink:href="#m02e49637cb" y="145.314507"/>
      </g>
     </g>
    </g>
    <g id="xtick_27">
     <g id="line2d_27">
      <g>
       <use style="fill:#262626;stroke:#262626;stroke-width:0.5;" x="119.604639" xlink:href="#m02e49637cb" y="145.314507"/>
      </g>
     </g>
    </g>
    <g id="xtick_28">
     <g id="line2d_28">
      <g>
       <use style="fill:#262626;stroke:#262626;stroke-width:0.5;" x="123.318054" xlink:href="#m02e49637cb" y="145.314507"/>
      </g>
     </g>
    </g>
    <g id="xtick_29">
     <g id="line2d_29">
      <g>
       <use style="fill:#262626;stroke:#262626;stroke-width:0.5;" x="127.031469" xlink:href="#m02e49637cb" y="145.314507"/>
      </g>
     </g>
    </g>
    <g id="xtick_30">
     <g id="line2d_30">
      <g>
       <use style="fill:#262626;stroke:#262626;stroke-width:0.5;" x="130.744883" xlink:href="#m02e49637cb" y="145.314507"/>
      </g>
     </g>
    </g>
    <g id="xtick_31">
     <g id="line2d_31">
      <g>
       <use style="fill:#262626;stroke:#262626;stroke-width:0.5;" x="138.171713" xlink:href="#m02e49637cb" y="145.314507"/>
      </g>
     </g>
    </g>
    <g id="xtick_32">
     <g id="line2d_32">
      <g>
       <use style="fill:#262626;stroke:#262626;stroke-width:0.5;" x="141.885127" xlink:href="#m02e49637cb" y="145.314507"/>
      </g>
     </g>
    </g>
    <g id="xtick_33">
     <g id="line2d_33">
      <g>
       <use style="fill:#262626;stroke:#262626;stroke-width:0.5;" x="145.598542" xlink:href="#m02e49637cb" y="145.314507"/>
      </g>
     </g>
    </g>
    <g id="xtick_34">
     <g id="line2d_34">
      <g>
       <use style="fill:#262626;stroke:#262626;stroke-width:0.5;" x="149.311957" xlink:href="#m02e49637cb" y="145.314507"/>
      </g>
     </g>
    </g>
    <g id="xtick_35">
     <g id="line2d_35">
      <g>
       <use style="fill:#262626;stroke:#262626;stroke-width:0.5;" x="156.738786" xlink:href="#m02e49637cb" y="145.314507"/>
      </g>
     </g>
    </g>
    <g id="xtick_36">
     <g id="line2d_36">
      <g>
       <use style="fill:#262626;stroke:#262626;stroke-width:0.5;" x="160.452201" xlink:href="#m02e49637cb" y="145.314507"/>
      </g>
     </g>
    </g>
    <g id="xtick_37">
     <g id="line2d_37">
      <g>
       <use style="fill:#262626;stroke:#262626;stroke-width:0.5;" x="164.165615" xlink:href="#m02e49637cb" y="145.314507"/>
      </g>
     </g>
    </g>
    <g id="xtick_38">
     <g id="line2d_38">
      <g>
       <use style="fill:#262626;stroke:#262626;stroke-width:0.5;" x="167.87903" xlink:href="#m02e49637cb" y="145.314507"/>
      </g>
     </g>
    </g>
    <g id="xtick_39">
     <g id="line2d_39">
      <g>
       <use style="fill:#262626;stroke:#262626;stroke-width:0.5;" x="175.30586" xlink:href="#m02e49637cb" y="145.314507"/>
      </g>
     </g>
    </g>
    <g id="xtick_40">
     <g id="line2d_40">
      <g>
       <use style="fill:#262626;stroke:#262626;stroke-width:0.5;" x="179.019274" xlink:href="#m02e49637cb" y="145.314507"/>
      </g>
     </g>
    </g>
    <g id="xtick_41">
     <g id="line2d_41">
      <g>
       <use style="fill:#262626;stroke:#262626;stroke-width:0.5;" x="182.732689" xlink:href="#m02e49637cb" y="145.314507"/>
      </g>
     </g>
    </g>
    <g id="xtick_42">
     <g id="line2d_42">
      <g>
       <use style="fill:#262626;stroke:#262626;stroke-width:0.5;" x="186.446104" xlink:href="#m02e49637cb" y="145.314507"/>
      </g>
     </g>
    </g>
    <g id="xtick_43">
     <g id="line2d_43">
      <g>
       <use style="fill:#262626;stroke:#262626;stroke-width:0.5;" x="193.872933" xlink:href="#m02e49637cb" y="145.314507"/>
      </g>
     </g>
    </g>
    <g id="xtick_44">
     <g id="line2d_44">
      <g>
       <use style="fill:#262626;stroke:#262626;stroke-width:0.5;" x="197.586348" xlink:href="#m02e49637cb" y="145.314507"/>
      </g>
     </g>
    </g>
    <g id="xtick_45">
     <g id="line2d_45">
      <g>
       <use style="fill:#262626;stroke:#262626;stroke-width:0.5;" x="201.299762" xlink:href="#m02e49637cb" y="145.314507"/>
      </g>
     </g>
    </g>
    <g id="xtick_46">
     <g id="line2d_46">
      <g>
       <use style="fill:#262626;stroke:#262626;stroke-width:0.5;" x="205.013177" xlink:href="#m02e49637cb" y="145.314507"/>
      </g>
     </g>
    </g>
    <g id="xtick_47">
     <g id="line2d_47">
      <g>
       <use style="fill:#262626;stroke:#262626;stroke-width:0.5;" x="212.440006" xlink:href="#m02e49637cb" y="145.314507"/>
      </g>
     </g>
    </g>
    <g id="xtick_48">
     <g id="line2d_48">
      <g>
       <use style="fill:#262626;stroke:#262626;stroke-width:0.5;" x="216.153421" xlink:href="#m02e49637cb" y="145.314507"/>
      </g>
     </g>
    </g>
    <g id="xtick_49">
     <g id="line2d_49">
      <g>
       <use style="fill:#262626;stroke:#262626;stroke-width:0.5;" x="219.866836" xlink:href="#m02e49637cb" y="145.314507"/>
      </g>
     </g>
    </g>
    <g id="xtick_50">
     <g id="line2d_50">
      <g>
       <use style="fill:#262626;stroke:#262626;stroke-width:0.5;" x="223.580251" xlink:href="#m02e49637cb" y="145.314507"/>
      </g>
     </g>
    </g>
    <g id="xtick_51">
     <g id="line2d_51">
      <g>
       <use style="fill:#262626;stroke:#262626;stroke-width:0.5;" x="231.00708" xlink:href="#m02e49637cb" y="145.314507"/>
      </g>
     </g>
    </g>
    <g id="xtick_52">
     <g id="line2d_52">
      <g>
       <use style="fill:#262626;stroke:#262626;stroke-width:0.5;" x="234.720495" xlink:href="#m02e49637cb" y="145.314507"/>
      </g>
     </g>
    </g>
    <g id="xtick_53">
     <g id="line2d_53">
      <g>
       <use style="fill:#262626;stroke:#262626;stroke-width:0.5;" x="238.433909" xlink:href="#m02e49637cb" y="145.314507"/>
      </g>
     </g>
    </g>
    <g id="xtick_54">
     <g id="line2d_54">
      <g>
       <use style="fill:#262626;stroke:#262626;stroke-width:0.5;" x="242.147324" xlink:href="#m02e49637cb" y="145.314507"/>
      </g>
     </g>
    </g>
    <g id="xtick_55">
     <g id="line2d_55">
      <g>
       <use style="fill:#262626;stroke:#262626;stroke-width:0.5;" x="249.574153" xlink:href="#m02e49637cb" y="145.314507"/>
      </g>
     </g>
    </g>
    <g id="xtick_56">
     <g id="line2d_56">
      <g>
       <use style="fill:#262626;stroke:#262626;stroke-width:0.5;" x="253.287568" xlink:href="#m02e49637cb" y="145.314507"/>
      </g>
     </g>
    </g>
    <g id="xtick_57">
     <g id="line2d_57">
      <g>
       <use style="fill:#262626;stroke:#262626;stroke-width:0.5;" x="257.000983" xlink:href="#m02e49637cb" y="145.314507"/>
      </g>
     </g>
    </g>
    <g id="xtick_58">
     <g id="line2d_58">
      <g>
       <use style="fill:#262626;stroke:#262626;stroke-width:0.5;" x="260.714397" xlink:href="#m02e49637cb" y="145.314507"/>
      </g>
     </g>
    </g>
    <g id="xtick_59">
     <g id="line2d_59">
      <g>
       <use style="fill:#262626;stroke:#262626;stroke-width:0.5;" x="268.141227" xlink:href="#m02e49637cb" y="145.314507"/>
      </g>
     </g>
    </g>
    <g id="xtick_60">
     <g id="line2d_60">
      <g>
       <use style="fill:#262626;stroke:#262626;stroke-width:0.5;" x="271.854642" xlink:href="#m02e49637cb" y="145.314507"/>
      </g>
     </g>
    </g>
    <g id="text_13">
     <!-- ROI Region -->
     <defs>
      <path d="M 17.09375 69 
L 8.703125 69 
L 8.703125 0 
L 17.09375 0 
z
" id="CMSS17-73"/>
      <path d="M 15.296875 66 
L 6.90625 66 
L 6.90625 57.59375 
L 15.296875 57.59375 
z
M 14.796875 43 
L 7.40625 43 
L 7.40625 0 
L 14.796875 0 
z
" id="CMSS17-105"/>
     </defs>
     <g style="fill:#262626;" transform="translate(138.204802 186.567424)scale(0.1 -0.1)">
      <use transform="scale(0.996264)" xlink:href="#CMSS17-82"/>
      <use transform="translate(60.416155 0)scale(0.996264)" xlink:href="#CMSS17-79"/>
      <use transform="translate(129.44041 0)scale(0.996264)" xlink:href="#CMSS17-73"/>
      <use transform="translate(186.453448 0)scale(0.996264)" xlink:href="#CMSS17-82"/>
      <use transform="translate(246.869603 0)scale(0.996264)" xlink:href="#CMSS17-101"/>
      <use transform="translate(288.508425 0)scale(0.996264)" xlink:href="#CMSS17-103"/>
      <use transform="translate(335.352049 0)scale(0.996264)" xlink:href="#CMSS17-105"/>
      <use transform="translate(357.532772 0)scale(0.996264)" xlink:href="#CMSS17-111"/>
      <use transform="translate(404.376396 0)scale(0.996264)" xlink:href="#CMSS17-110"/>
     </g>
    </g>
   </g>
   <g id="matplotlib.axis_2">
    <g id="ytick_1">
     <g id="line2d_61">
      <defs>
       <path d="M 0 0 
L -3 0 
" id="m12776027bf" style="stroke:#262626;stroke-width:0.5;"/>
      </defs>
      <g>
       <use style="fill:#262626;stroke:#262626;stroke-width:0.5;" x="50.906467" xlink:href="#m12776027bf" y="138.969829"/>
      </g>
     </g>
     <g id="text_14">
      <!-- $\mathdefault{0.00}$ -->
      <defs>
       <path d="M 42 31.84375 
C 42 37.96875 41.90625 48.421875 37.703125 56.453125 
C 34 63.484375 28.09375 66 22.90625 66 
C 18.09375 66 12 63.78125 8.203125 56.5625 
C 4.203125 49.015625 3.796875 39.671875 3.796875 31.84375 
C 3.796875 26.109375 3.90625 17.375 7 9.734375 
C 11.296875 -0.609375 19 -2 22.90625 -2 
C 27.5 -2 34.5 -0.109375 38.59375 9.4375 
C 41.59375 16.375 42 24.5 42 31.84375 
z
M 22.90625 -0.40625 
C 16.5 -0.40625 12.703125 5.125 11.296875 12.75 
C 10.203125 18.6875 10.203125 27.328125 10.203125 32.953125 
C 10.203125 40.6875 10.203125 47.109375 11.5 53.234375 
C 13.40625 61.78125 19 64.390625 22.90625 64.390625 
C 27 64.390625 32.296875 61.671875 34.203125 53.4375 
C 35.5 47.71875 35.59375 40.984375 35.59375 32.953125 
C 35.59375 26.421875 35.59375 18.375 34.40625 12.453125 
C 32.296875 1.5 26.40625 -0.40625 22.90625 -0.40625 
z
" id="CMR17-48"/>
       <path d="M 18.40625 4.796875 
C 18.40625 7.6875 16 9.6875 13.59375 9.6875 
C 10.703125 9.6875 8.703125 7.296875 8.703125 4.890625 
C 8.703125 2 11.09375 0 13.5 0 
C 16.40625 0 18.40625 2.390625 18.40625 4.796875 
z
" id="CMMI12-58"/>
      </defs>
      <g style="fill:#262626;" transform="translate(26.695053 142.429078)scale(0.1 -0.1)">
       <use transform="scale(0.996264)" xlink:href="#CMR17-48"/>
       <use transform="translate(45.690477 0)scale(0.996264)" xlink:href="#CMMI12-58"/>
       <use transform="translate(72.787654 0)scale(0.996264)" xlink:href="#CMR17-48"/>
       <use transform="translate(118.478131 0)scale(0.996264)" xlink:href="#CMR17-48"/>
      </g>
     </g>
    </g>
    <g id="ytick_2">
     <g id="line2d_62">
      <g>
       <use style="fill:#262626;stroke:#262626;stroke-width:0.5;" x="50.906467" xlink:href="#m12776027bf" y="94.999635"/>
      </g>
     </g>
     <g id="text_15">
      <!-- $\mathdefault{0.05}$ -->
      <defs>
       <path d="M 11.40625 58.59375 
C 12.40625 58.1875 16.5 56.890625 20.703125 56.890625 
C 30 56.890625 35.09375 61.890625 38 64.6875 
C 38 65.484375 38 66 37.40625 66 
C 37.296875 66 37.09375 66 36.296875 65.59375 
C 32.796875 64.09375 28.703125 63 23.703125 63 
C 20.703125 63 16.203125 63.359375 11.296875 65.484375 
C 10.203125 66 10 66 9.90625 66 
C 9.40625 66 9.296875 65.890625 9.296875 63.90625 
L 9.296875 34.859375 
C 9.296875 33.015625 9.296875 32.5 10.296875 32.5 
C 10.796875 32.5 11 32.703125 11.5 33.421875 
C 14.703125 38.046875 19.09375 40 24.09375 40 
C 27.59375 40 35.09375 37.734375 35.09375 20.203125 
C 35.09375 16.984375 35.09375 11.1875 32.09375 6.59375 
C 29.59375 2.484375 25.703125 0.390625 21.40625 0.390625 
C 14.796875 0.390625 8.09375 4.984375 6.296875 12.6875 
C 6.703125 12.59375 7.5 12.390625 7.90625 12.390625 
C 9.203125 12.390625 11.703125 13.09375 11.703125 16.1875 
C 11.703125 18.890625 9.796875 20 7.90625 20 
C 5.59375 20 4.09375 18.59375 4.09375 15.796875 
C 4.09375 7.09375 11 -2 21.59375 -2 
C 31.90625 -2 41.703125 6.890625 41.703125 19.796875 
C 41.703125 32.09375 33.90625 41.59375 24.203125 41.59375 
C 19.09375 41.59375 14.796875 39.6875 11.40625 36 
z
" id="CMR17-53"/>
      </defs>
      <g style="fill:#262626;" transform="translate(26.695053 98.458885)scale(0.1 -0.1)">
       <use transform="scale(0.996264)" xlink:href="#CMR17-48"/>
       <use transform="translate(45.690477 0)scale(0.996264)" xlink:href="#CMMI12-58"/>
       <use transform="translate(72.787654 0)scale(0.996264)" xlink:href="#CMR17-48"/>
       <use transform="translate(118.478131 0)scale(0.996264)" xlink:href="#CMR17-53"/>
      </g>
     </g>
    </g>
    <g id="ytick_3">
     <g id="line2d_63">
      <g>
       <use style="fill:#262626;stroke:#262626;stroke-width:0.5;" x="50.906467" xlink:href="#m12776027bf" y="51.029442"/>
      </g>
     </g>
     <g id="text_16">
      <!-- $\mathdefault{0.10}$ -->
      <defs>
       <path d="M 26.59375 63.796875 
C 26.59375 65.890625 26.5 66 25.09375 66 
C 21.203125 61.359375 15.296875 59.890625 9.703125 59.6875 
C 9.40625 59.6875 8.90625 59.6875 8.796875 59.5 
C 8.703125 59.296875 8.703125 59.09375 8.703125 57 
C 11.796875 57 17 57.59375 21 59.984375 
L 21 7.296875 
C 21 3.796875 20.796875 2.59375 12.203125 2.59375 
L 9.203125 2.59375 
L 9.203125 0 
C 14 0.09375 19 0.1875 23.796875 0.1875 
C 28.59375 0.1875 33.59375 0.09375 38.40625 0 
L 38.40625 2.59375 
L 35.40625 2.59375 
C 26.796875 2.59375 26.59375 3.6875 26.59375 7.296875 
z
" id="CMR17-49"/>
      </defs>
      <g style="fill:#262626;" transform="translate(26.695053 54.488692)scale(0.1 -0.1)">
       <use transform="scale(0.996264)" xlink:href="#CMR17-48"/>
       <use transform="translate(45.690477 0)scale(0.996264)" xlink:href="#CMMI12-58"/>
       <use transform="translate(72.787654 0)scale(0.996264)" xlink:href="#CMR17-49"/>
       <use transform="translate(118.478131 0)scale(0.996264)" xlink:href="#CMR17-48"/>
      </g>
     </g>
    </g>
    <g id="ytick_4">
     <g id="line2d_64">
      <g>
       <use style="fill:#262626;stroke:#262626;stroke-width:0.5;" x="50.906467" xlink:href="#m12776027bf" y="7.059249"/>
      </g>
     </g>
     <g id="text_17">
      <!-- $\mathdefault{0.15}$ -->
      <g style="fill:#262626;" transform="translate(26.695053 10.518498)scale(0.1 -0.1)">
       <use transform="scale(0.996264)" xlink:href="#CMR17-48"/>
       <use transform="translate(45.690477 0)scale(0.996264)" xlink:href="#CMMI12-58"/>
       <use transform="translate(72.787654 0)scale(0.996264)" xlink:href="#CMR17-49"/>
       <use transform="translate(118.478131 0)scale(0.996264)" xlink:href="#CMR17-53"/>
      </g>
     </g>
    </g>
    <g id="ytick_5">
     <g id="line2d_65">
      <defs>
       <path d="M 0 0 
L -1.5 0 
" id="m3ba4d418bd" style="stroke:#262626;stroke-width:0.5;"/>
      </defs>
      <g>
       <use style="fill:#262626;stroke:#262626;stroke-width:0.5;" x="50.906467" xlink:href="#m3ba4d418bd" y="130.17579"/>
      </g>
     </g>
    </g>
    <g id="ytick_6">
     <g id="line2d_66">
      <g>
       <use style="fill:#262626;stroke:#262626;stroke-width:0.5;" x="50.906467" xlink:href="#m3ba4d418bd" y="121.381751"/>
      </g>
     </g>
    </g>
    <g id="ytick_7">
     <g id="line2d_67">
      <g>
       <use style="fill:#262626;stroke:#262626;stroke-width:0.5;" x="50.906467" xlink:href="#m3ba4d418bd" y="112.587713"/>
      </g>
     </g>
    </g>
    <g id="ytick_8">
     <g id="line2d_68">
      <g>
       <use style="fill:#262626;stroke:#262626;stroke-width:0.5;" x="50.906467" xlink:href="#m3ba4d418bd" y="103.793674"/>
      </g>
     </g>
    </g>
    <g id="ytick_9">
     <g id="line2d_69">
      <g>
       <use style="fill:#262626;stroke:#262626;stroke-width:0.5;" x="50.906467" xlink:href="#m3ba4d418bd" y="86.205597"/>
      </g>
     </g>
    </g>
    <g id="ytick_10">
     <g id="line2d_70">
      <g>
       <use style="fill:#262626;stroke:#262626;stroke-width:0.5;" x="50.906467" xlink:href="#m3ba4d418bd" y="77.411558"/>
      </g>
     </g>
    </g>
    <g id="ytick_11">
     <g id="line2d_71">
      <g>
       <use style="fill:#262626;stroke:#262626;stroke-width:0.5;" x="50.906467" xlink:href="#m3ba4d418bd" y="68.61752"/>
      </g>
     </g>
    </g>
    <g id="ytick_12">
     <g id="line2d_72">
      <g>
       <use style="fill:#262626;stroke:#262626;stroke-width:0.5;" x="50.906467" xlink:href="#m3ba4d418bd" y="59.823481"/>
      </g>
     </g>
    </g>
    <g id="ytick_13">
     <g id="line2d_73">
      <g>
       <use style="fill:#262626;stroke:#262626;stroke-width:0.5;" x="50.906467" xlink:href="#m3ba4d418bd" y="42.235404"/>
      </g>
     </g>
    </g>
    <g id="ytick_14">
     <g id="line2d_74">
      <g>
       <use style="fill:#262626;stroke:#262626;stroke-width:0.5;" x="50.906467" xlink:href="#m3ba4d418bd" y="33.441365"/>
      </g>
     </g>
    </g>
    <g id="ytick_15">
     <g id="line2d_75">
      <g>
       <use style="fill:#262626;stroke:#262626;stroke-width:0.5;" x="50.906467" xlink:href="#m3ba4d418bd" y="24.647326"/>
      </g>
     </g>
    </g>
    <g id="ytick_16">
     <g id="line2d_76">
      <g>
       <use style="fill:#262626;stroke:#262626;stroke-width:0.5;" x="50.906467" xlink:href="#m3ba4d418bd" y="15.853288"/>
      </g>
     </g>
    </g>
    <g id="text_18">
     <!-- Average -->
     <defs>
      <path d="M 41.796875 43 
L 34 43 
L 27.296875 24.296875 
C 25.203125 18.1875 22.203125 9.796875 21.703125 5.5 
L 21.59375 5.5 
C 21.40625 7.296875 20.59375 9.890625 20.09375 11.6875 
C 19.5 13.890625 18.703125 16.5 18.09375 18.296875 
L 9.296875 43 
L 1.296875 43 
L 17.09375 0 
L 26 0 
z
" id="CMSS17-118"/>
     </defs>
     <g style="fill:#262626;" transform="translate(10.518498 92.154088)rotate(-90)scale(0.1 -0.1)">
      <use transform="scale(0.996264)" xlink:href="#CMSS17-65"/>
      <use transform="translate(62.217855 0)scale(0.996264)" xlink:href="#CMSS17-118"/>
      <use transform="translate(105.217997 0)scale(0.996264)" xlink:href="#CMSS17-101"/>
      <use transform="translate(146.856819 0)scale(0.996264)" xlink:href="#CMSS17-114"/>
      <use transform="translate(178.766591 0)scale(0.996264)" xlink:href="#CMSS17-97"/>
      <use transform="translate(223.688512 0)scale(0.996264)" xlink:href="#CMSS17-103"/>
      <use transform="translate(270.532135 0)scale(0.996264)" xlink:href="#CMSS17-101"/>
     </g>
     <!-- Contribution Weight -->
     <defs>
      <path d="M 14.90625 69 
L 7.5 69 
L 7.5 -0.203125 
L 15.09375 -0.203125 
L 15.09375 4.296875 
C 18.90625 0.59375 23.5 -1 27.59375 -1 
C 37.203125 -1 45 8.734375 45 21.59375 
C 45 33.328125 39 44 30.09375 44 
C 23.796875 44 18.203125 41.390625 14.90625 38.6875 
z
M 15.09375 32.734375 
C 17.296875 35.5625 20.40625 37.890625 24.796875 37.890625 
C 30.703125 37.890625 37.40625 33.53125 37.40625 21.59375 
C 37.40625 8.84375 29.40625 5.09375 23.90625 5.09375 
C 21.90625 5.09375 19.796875 5.59375 17.796875 7.3125 
C 15.09375 9.75 15.09375 11.265625 15.09375 12.6875 
z
" id="CMSS17-98"/>
      <path d="M 87.203125 69 
L 79.59375 69 
L 71.203125 38.0625 
C 69.90625 33.09375 68.703125 28.125 67.5 23.15625 
C 65.703125 15.8125 64.40625 10.640625 64.203125 8.0625 
L 64.09375 8.0625 
C 63.90625 10.734375 62.59375 16.40625 61 22.765625 
C 59.796875 28.03125 58.5 33.296875 57.09375 38.46875 
L 48.796875 69 
L 40.40625 69 
L 32.5 40.0625 
L 28.5 24.25 
C 25.5 11.734375 25.40625 9.9375 25.203125 7.953125 
L 25.09375 7.953125 
C 25.09375 8.546875 24.703125 11.828125 21.90625 23.453125 
C 20.5 29.21875 19.09375 35.09375 17.59375 40.65625 
L 9.90625 69 
L 1.296875 69 
L 20.296875 0 
L 28.59375 0 
L 36.5 28.71875 
L 40.5 44.53125 
C 43.203125 55.65625 43.796875 58.4375 44 60.921875 
L 44.09375 60.921875 
C 44.09375 60.53125 45 54.265625 48.90625 39.75 
L 59.5 0 
L 68.203125 0 
z
" id="CMSS17-87"/>
      <path d="M 40.90625 29.34375 
C 40.90625 35.671875 39.40625 44 28.09375 44 
C 21.796875 44 17.703125 40.890625 14.796875 37.484375 
L 14.796875 69 
L 7.40625 69 
L 7.40625 0 
L 15 0 
L 15 24.3125 
C 15 30.65625 17.40625 37.890625 24.203125 37.890625 
C 33 37.890625 33.296875 31.953125 33.296875 28.53125 
L 33.296875 0 
L 40.90625 0 
z
" id="CMSS17-104"/>
     </defs>
     <g style="fill:#262626;" transform="translate(20.757875 118.153826)rotate(-90)scale(0.1 -0.1)">
      <use transform="scale(0.996264)" xlink:href="#CMSS17-67"/>
      <use transform="translate(59.855772 0)scale(0.996264)" xlink:href="#CMSS17-111"/>
      <use transform="translate(106.699395 0)scale(0.996264)" xlink:href="#CMSS17-110"/>
      <use transform="translate(154.904338 0)scale(0.996264)" xlink:href="#CMSS17-116"/>
      <use transform="translate(188.735905 0)scale(0.996264)" xlink:href="#CMSS17-114"/>
      <use transform="translate(220.645677 0)scale(0.996264)" xlink:href="#CMSS17-105"/>
      <use transform="translate(242.826401 0)scale(0.996264)" xlink:href="#CMSS17-98"/>
      <use transform="translate(291.031344 0)scale(0.996264)" xlink:href="#CMSS17-117"/>
      <use transform="translate(339.236287 0)scale(0.996264)" xlink:href="#CMSS17-116"/>
      <use transform="translate(373.067853 0)scale(0.996264)" xlink:href="#CMSS17-105"/>
      <use transform="translate(395.248577 0)scale(0.996264)" xlink:href="#CMSS17-111"/>
      <use transform="translate(442.0922 0)scale(0.996264)" xlink:href="#CMSS17-110"/>
      <use transform="translate(521.526256 0)scale(0.996264)" xlink:href="#CMSS17-87"/>
      <use transform="translate(607.165968 0)scale(0.996264)" xlink:href="#CMSS17-101"/>
      <use transform="translate(648.80479 0)scale(0.996264)" xlink:href="#CMSS17-105"/>
      <use transform="translate(670.985513 0)scale(0.996264)" xlink:href="#CMSS17-103"/>
      <use transform="translate(717.829137 0)scale(0.996264)" xlink:href="#CMSS17-104"/>
      <use transform="translate(766.03408 0)scale(0.996264)" xlink:href="#CMSS17-116"/>
     </g>
    </g>
   </g>
   <g id="patch_3">
    <path clip-path="url(#pb5ea782b50)" d="M 52.763175 122.543115 
L 67.616833 122.543115 
L 67.616833 79.950752 
L 52.763175 79.950752 
L 52.763175 122.543115 
z
" style="fill:#ffffff;stroke:#000000;stroke-linejoin:miter;"/>
   </g>
   <g id="patch_4">
    <path clip-path="url(#pb5ea782b50)" d="M 71.330248 121.739882 
L 86.183907 121.739882 
L 86.183907 78.944666 
L 71.330248 78.944666 
L 71.330248 121.739882 
z
" style="fill:#ffffff;stroke:#000000;stroke-linejoin:miter;"/>
   </g>
   <g id="patch_5">
    <path clip-path="url(#pb5ea782b50)" d="M 89.897322 122.790728 
L 104.75098 122.790728 
L 104.75098 78.495928 
L 89.897322 78.495928 
L 89.897322 122.790728 
z
" style="fill:#ffffff;stroke:#000000;stroke-linejoin:miter;"/>
   </g>
   <g id="patch_6">
    <path clip-path="url(#pb5ea782b50)" d="M 108.464395 123.089634 
L 123.318054 123.089634 
L 123.318054 81.181533 
L 108.464395 81.181533 
L 108.464395 123.089634 
z
" style="fill:#ffffff;stroke:#000000;stroke-linejoin:miter;"/>
   </g>
   <g id="patch_7">
    <path clip-path="url(#pb5ea782b50)" d="M 127.031469 122.960701 
L 141.885127 122.960701 
L 141.885127 79.92367 
L 127.031469 79.92367 
L 127.031469 122.960701 
z
" style="fill:#ffffff;stroke:#000000;stroke-linejoin:miter;"/>
   </g>
   <g id="patch_8">
    <path clip-path="url(#pb5ea782b50)" d="M 145.598542 123.04458 
L 160.452201 123.04458 
L 160.452201 81.30005 
L 145.598542 81.30005 
L 145.598542 123.04458 
z
" style="fill:#ffffff;stroke:#000000;stroke-linejoin:miter;"/>
   </g>
   <g id="patch_9">
    <path clip-path="url(#pb5ea782b50)" d="M 164.165615 124.866627 
L 179.019274 124.866627 
L 179.019274 80.910494 
L 164.165615 80.910494 
L 164.165615 124.866627 
z
" style="fill:#ffffff;stroke:#000000;stroke-linejoin:miter;"/>
   </g>
   <g id="patch_10">
    <path clip-path="url(#pb5ea782b50)" d="M 182.732689 124.790693 
L 197.586348 124.790693 
L 197.586348 81.02402 
L 182.732689 81.02402 
L 182.732689 124.790693 
z
" style="fill:#ffffff;stroke:#000000;stroke-linejoin:miter;"/>
   </g>
   <g id="patch_11">
    <path clip-path="url(#pb5ea782b50)" d="M 201.299762 125.270378 
L 216.153421 125.270378 
L 216.153421 80.603383 
L 201.299762 80.603383 
L 201.299762 125.270378 
z
" style="fill:#ffffff;stroke:#000000;stroke-linejoin:miter;"/>
   </g>
   <g id="patch_12">
    <path clip-path="url(#pb5ea782b50)" d="M 219.866836 125.584277 
L 234.720495 125.584277 
L 234.720495 82.679097 
L 219.866836 82.679097 
L 219.866836 125.584277 
z
" style="fill:#ffffff;stroke:#000000;stroke-linejoin:miter;"/>
   </g>
   <g id="patch_13">
    <path clip-path="url(#pb5ea782b50)" d="M 238.433909 124.962388 
L 253.287568 124.962388 
L 253.287568 86.857821 
L 238.433909 86.857821 
L 238.433909 124.962388 
z
" style="fill:#ffffff;stroke:#000000;stroke-linejoin:miter;"/>
   </g>
   <g id="patch_14">
    <path clip-path="url(#pb5ea782b50)" d="M 257.000983 129.735833 
L 271.854642 129.735833 
L 271.854642 87.963713 
L 257.000983 87.963713 
L 257.000983 129.735833 
z
" style="fill:#ffffff;stroke:#000000;stroke-linejoin:miter;"/>
   </g>
   <g id="line2d_77">
    <path clip-path="url(#pb5ea782b50)" d="M 60.190004 122.543115 
L 60.190004 138.969569 
" style="fill:none;stroke:#000000;stroke-linecap:round;"/>
   </g>
   <g id="line2d_78">
    <path clip-path="url(#pb5ea782b50)" d="M 60.190004 79.950752 
L 60.190004 16.064564 
" style="fill:none;stroke:#000000;stroke-linecap:round;"/>
   </g>
   <g id="line2d_79">
    <path clip-path="url(#pb5ea782b50)" d="M 56.476589 138.969569 
L 63.903419 138.969569 
" style="fill:none;stroke:#000000;stroke-linecap:round;"/>
   </g>
   <g id="line2d_80">
    <path clip-path="url(#pb5ea782b50)" d="M 56.476589 16.064564 
L 63.903419 16.064564 
" style="fill:none;stroke:#000000;stroke-linecap:round;"/>
   </g>
   <g id="line2d_81">
    <path clip-path="url(#pb5ea782b50)" d="M 78.757078 121.739882 
L 78.757078 138.966475 
" style="fill:none;stroke:#000000;stroke-linecap:round;"/>
   </g>
   <g id="line2d_82">
    <path clip-path="url(#pb5ea782b50)" d="M 78.757078 78.944666 
L 78.757078 14.752708 
" style="fill:none;stroke:#000000;stroke-linecap:round;"/>
   </g>
   <g id="line2d_83">
    <path clip-path="url(#pb5ea782b50)" d="M 75.043663 138.966475 
L 82.470492 138.966475 
" style="fill:none;stroke:#000000;stroke-linecap:round;"/>
   </g>
   <g id="line2d_84">
    <path clip-path="url(#pb5ea782b50)" d="M 75.043663 14.752708 
L 82.470492 14.752708 
" style="fill:none;stroke:#000000;stroke-linecap:round;"/>
   </g>
   <g id="line2d_85">
    <path clip-path="url(#pb5ea782b50)" d="M 97.324151 122.790728 
L 97.324151 138.968755 
" style="fill:none;stroke:#000000;stroke-linecap:round;"/>
   </g>
   <g id="line2d_86">
    <path clip-path="url(#pb5ea782b50)" d="M 97.324151 78.495928 
L 97.324151 12.074209 
" style="fill:none;stroke:#000000;stroke-linecap:round;"/>
   </g>
   <g id="line2d_87">
    <path clip-path="url(#pb5ea782b50)" d="M 93.610736 138.968755 
L 101.037566 138.968755 
" style="fill:none;stroke:#000000;stroke-linecap:round;"/>
   </g>
   <g id="line2d_88">
    <path clip-path="url(#pb5ea782b50)" d="M 93.610736 12.074209 
L 101.037566 12.074209 
" style="fill:none;stroke:#000000;stroke-linecap:round;"/>
   </g>
   <g id="line2d_89">
    <path clip-path="url(#pb5ea782b50)" d="M 115.891224 123.089634 
L 115.891224 138.969684 
" style="fill:none;stroke:#000000;stroke-linecap:round;"/>
   </g>
   <g id="line2d_90">
    <path clip-path="url(#pb5ea782b50)" d="M 115.891224 81.181533 
L 115.891224 18.323141 
" style="fill:none;stroke:#000000;stroke-linecap:round;"/>
   </g>
   <g id="line2d_91">
    <path clip-path="url(#pb5ea782b50)" d="M 112.17781 138.969684 
L 119.604639 138.969684 
" style="fill:none;stroke:#000000;stroke-linecap:round;"/>
   </g>
   <g id="line2d_92">
    <path clip-path="url(#pb5ea782b50)" d="M 112.17781 18.323141 
L 119.604639 18.323141 
" style="fill:none;stroke:#000000;stroke-linecap:round;"/>
   </g>
   <g id="line2d_93">
    <path clip-path="url(#pb5ea782b50)" d="M 134.458298 122.960701 
L 134.458298 138.968329 
" style="fill:none;stroke:#000000;stroke-linecap:round;"/>
   </g>
   <g id="line2d_94">
    <path clip-path="url(#pb5ea782b50)" d="M 134.458298 79.92367 
L 134.458298 15.429214 
" style="fill:none;stroke:#000000;stroke-linecap:round;"/>
   </g>
   <g id="line2d_95">
    <path clip-path="url(#pb5ea782b50)" d="M 130.744883 138.968329 
L 138.171713 138.968329 
" style="fill:none;stroke:#000000;stroke-linecap:round;"/>
   </g>
   <g id="line2d_96">
    <path clip-path="url(#pb5ea782b50)" d="M 130.744883 15.429214 
L 138.171713 15.429214 
" style="fill:none;stroke:#000000;stroke-linecap:round;"/>
   </g>
   <g id="line2d_97">
    <path clip-path="url(#pb5ea782b50)" d="M 153.025371 123.04458 
L 153.025371 138.969127 
" style="fill:none;stroke:#000000;stroke-linecap:round;"/>
   </g>
   <g id="line2d_98">
    <path clip-path="url(#pb5ea782b50)" d="M 153.025371 81.30005 
L 153.025371 18.714535 
" style="fill:none;stroke:#000000;stroke-linecap:round;"/>
   </g>
   <g id="line2d_99">
    <path clip-path="url(#pb5ea782b50)" d="M 149.311957 138.969127 
L 156.738786 138.969127 
" style="fill:none;stroke:#000000;stroke-linecap:round;"/>
   </g>
   <g id="line2d_100">
    <path clip-path="url(#pb5ea782b50)" d="M 149.311957 18.714535 
L 156.738786 18.714535 
" style="fill:none;stroke:#000000;stroke-linecap:round;"/>
   </g>
   <g id="line2d_101">
    <path clip-path="url(#pb5ea782b50)" d="M 171.592445 124.866627 
L 171.592445 138.962792 
" style="fill:none;stroke:#000000;stroke-linecap:round;"/>
   </g>
   <g id="line2d_102">
    <path clip-path="url(#pb5ea782b50)" d="M 171.592445 80.910494 
L 171.592445 14.985634 
" style="fill:none;stroke:#000000;stroke-linecap:round;"/>
   </g>
   <g id="line2d_103">
    <path clip-path="url(#pb5ea782b50)" d="M 167.87903 138.962792 
L 175.30586 138.962792 
" style="fill:none;stroke:#000000;stroke-linecap:round;"/>
   </g>
   <g id="line2d_104">
    <path clip-path="url(#pb5ea782b50)" d="M 167.87903 14.985634 
L 175.30586 14.985634 
" style="fill:none;stroke:#000000;stroke-linecap:round;"/>
   </g>
   <g id="line2d_105">
    <path clip-path="url(#pb5ea782b50)" d="M 190.159518 124.790693 
L 190.159518 138.969731 
" style="fill:none;stroke:#000000;stroke-linecap:round;"/>
   </g>
   <g id="line2d_106">
    <path clip-path="url(#pb5ea782b50)" d="M 190.159518 81.02402 
L 190.159518 15.374208 
" style="fill:none;stroke:#000000;stroke-linecap:round;"/>
   </g>
   <g id="line2d_107">
    <path clip-path="url(#pb5ea782b50)" d="M 186.446104 138.969731 
L 193.872933 138.969731 
" style="fill:none;stroke:#000000;stroke-linecap:round;"/>
   </g>
   <g id="line2d_108">
    <path clip-path="url(#pb5ea782b50)" d="M 186.446104 15.374208 
L 193.872933 15.374208 
" style="fill:none;stroke:#000000;stroke-linecap:round;"/>
   </g>
   <g id="line2d_109">
    <path clip-path="url(#pb5ea782b50)" d="M 208.726592 125.270378 
L 208.726592 138.965178 
" style="fill:none;stroke:#000000;stroke-linecap:round;"/>
   </g>
   <g id="line2d_110">
    <path clip-path="url(#pb5ea782b50)" d="M 208.726592 80.603383 
L 208.726592 13.637675 
" style="fill:none;stroke:#000000;stroke-linecap:round;"/>
   </g>
   <g id="line2d_111">
    <path clip-path="url(#pb5ea782b50)" d="M 205.013177 138.965178 
L 212.440006 138.965178 
" style="fill:none;stroke:#000000;stroke-linecap:round;"/>
   </g>
   <g id="line2d_112">
    <path clip-path="url(#pb5ea782b50)" d="M 205.013177 13.637675 
L 212.440006 13.637675 
" style="fill:none;stroke:#000000;stroke-linecap:round;"/>
   </g>
   <g id="line2d_113">
    <path clip-path="url(#pb5ea782b50)" d="M 227.293665 125.584277 
L 227.293665 138.969492 
" style="fill:none;stroke:#000000;stroke-linecap:round;"/>
   </g>
   <g id="line2d_114">
    <path clip-path="url(#pb5ea782b50)" d="M 227.293665 82.679097 
L 227.293665 18.454526 
" style="fill:none;stroke:#000000;stroke-linecap:round;"/>
   </g>
   <g id="line2d_115">
    <path clip-path="url(#pb5ea782b50)" d="M 223.580251 138.969492 
L 231.00708 138.969492 
" style="fill:none;stroke:#000000;stroke-linecap:round;"/>
   </g>
   <g id="line2d_116">
    <path clip-path="url(#pb5ea782b50)" d="M 223.580251 18.454526 
L 231.00708 18.454526 
" style="fill:none;stroke:#000000;stroke-linecap:round;"/>
   </g>
   <g id="line2d_117">
    <path clip-path="url(#pb5ea782b50)" d="M 245.860739 124.962388 
L 245.860739 138.916724 
" style="fill:none;stroke:#000000;stroke-linecap:round;"/>
   </g>
   <g id="line2d_118">
    <path clip-path="url(#pb5ea782b50)" d="M 245.860739 86.857821 
L 245.860739 30.135424 
" style="fill:none;stroke:#000000;stroke-linecap:round;"/>
   </g>
   <g id="line2d_119">
    <path clip-path="url(#pb5ea782b50)" d="M 242.147324 138.916724 
L 249.574153 138.916724 
" style="fill:none;stroke:#000000;stroke-linecap:round;"/>
   </g>
   <g id="line2d_120">
    <path clip-path="url(#pb5ea782b50)" d="M 242.147324 30.135424 
L 249.574153 30.135424 
" style="fill:none;stroke:#000000;stroke-linecap:round;"/>
   </g>
   <g id="line2d_121">
    <path clip-path="url(#pb5ea782b50)" d="M 264.427812 129.735833 
L 264.427812 138.969701 
" style="fill:none;stroke:#000000;stroke-linecap:round;"/>
   </g>
   <g id="line2d_122">
    <path clip-path="url(#pb5ea782b50)" d="M 264.427812 87.963713 
L 264.427812 25.333062 
" style="fill:none;stroke:#000000;stroke-linecap:round;"/>
   </g>
   <g id="line2d_123">
    <path clip-path="url(#pb5ea782b50)" d="M 260.714397 138.969701 
L 268.141227 138.969701 
" style="fill:none;stroke:#000000;stroke-linecap:round;"/>
   </g>
   <g id="line2d_124">
    <path clip-path="url(#pb5ea782b50)" d="M 260.714397 25.333062 
L 268.141227 25.333062 
" style="fill:none;stroke:#000000;stroke-linecap:round;"/>
   </g>
   <g id="line2d_125">
    <path clip-path="url(#pb5ea782b50)" d="M 52.763175 103.616436 
L 67.616833 103.616436 
" style="fill:none;stroke:#000000;stroke-linecap:round;"/>
   </g>
   <g id="line2d_126">
    <path clip-path="url(#pb5ea782b50)" d="M 71.330248 103.696132 
L 86.183907 103.696132 
" style="fill:none;stroke:#000000;stroke-linecap:round;"/>
   </g>
   <g id="line2d_127">
    <path clip-path="url(#pb5ea782b50)" d="M 89.897322 103.843568 
L 104.75098 103.843568 
" style="fill:none;stroke:#000000;stroke-linecap:round;"/>
   </g>
   <g id="line2d_128">
    <path clip-path="url(#pb5ea782b50)" d="M 108.464395 104.264778 
L 123.318054 104.264778 
" style="fill:none;stroke:#000000;stroke-linecap:round;"/>
   </g>
   <g id="line2d_129">
    <path clip-path="url(#pb5ea782b50)" d="M 127.031469 104.453131 
L 141.885127 104.453131 
" style="fill:none;stroke:#000000;stroke-linecap:round;"/>
   </g>
   <g id="line2d_130">
    <path clip-path="url(#pb5ea782b50)" d="M 145.598542 105.062979 
L 160.452201 105.062979 
" style="fill:none;stroke:#000000;stroke-linecap:round;"/>
   </g>
   <g id="line2d_131">
    <path clip-path="url(#pb5ea782b50)" d="M 164.165615 106.860399 
L 179.019274 106.860399 
" style="fill:none;stroke:#000000;stroke-linecap:round;"/>
   </g>
   <g id="line2d_132">
    <path clip-path="url(#pb5ea782b50)" d="M 182.732689 106.990834 
L 197.586348 106.990834 
" style="fill:none;stroke:#000000;stroke-linecap:round;"/>
   </g>
   <g id="line2d_133">
    <path clip-path="url(#pb5ea782b50)" d="M 201.299762 107.240823 
L 216.153421 107.240823 
" style="fill:none;stroke:#000000;stroke-linecap:round;"/>
   </g>
   <g id="line2d_134">
    <path clip-path="url(#pb5ea782b50)" d="M 219.866836 109.099635 
L 234.720495 109.099635 
" style="fill:none;stroke:#000000;stroke-linecap:round;"/>
   </g>
   <g id="line2d_135">
    <path clip-path="url(#pb5ea782b50)" d="M 238.433909 109.599514 
L 253.287568 109.599514 
" style="fill:none;stroke:#000000;stroke-linecap:round;"/>
   </g>
   <g id="line2d_136">
    <path clip-path="url(#pb5ea782b50)" d="M 257.000983 114.995772 
L 271.854642 114.995772 
" style="fill:none;stroke:#000000;stroke-linecap:round;"/>
   </g>
   <g id="patch_15">
    <path d="M 50.906467 145.314507 
L 50.906467 5.729433 
" style="fill:none;stroke:#262626;stroke-linecap:square;stroke-linejoin:miter;stroke-width:0.5;"/>
   </g>
   <g id="patch_16">
    <path d="M 50.906467 145.314507 
L 273.711349 145.314507 
" style="fill:none;stroke:#262626;stroke-linecap:square;stroke-linejoin:miter;stroke-width:0.5;"/>
   </g>
  </g>
 </g>
 <defs>
  <clipPath id="pb5ea782b50">
   <rect height="139.585074" width="222.804882" x="50.906467" y="5.729433"/>
  </clipPath>
 </defs>
</svg>
